<svg width="2274" height="2493" xmlns="http://www.w3.org/2000/svg" xmlns:xlink="http://www.w3.org/1999/xlink" xml:space="preserve" overflow="hidden"><defs><clipPath id="clip0"><rect x="1061" y="0" width="2274" height="2493"/></clipPath></defs><g clip-path="url(#clip0)" transform="translate(-1061 0)"><rect x="1516.5" y="46.4999" width="252" height="96.9999" stroke="#FFFFFF" stroke-width="3.4375" stroke-miterlimit="8" fill="#FFFFFF"/><rect x="1064" y="58.0001" width="2136" height="2302" stroke="#000000" stroke-width="5.72917" stroke-linecap="round" stroke-miterlimit="8" stroke-dasharray="40.1042 22.9167 0 22.9167" fill="#FFFFFF"/><path d="M1768 93.9998 3119.82 93.9998 3119.82 2243.38 1827.32 2243.38" stroke="#000000" stroke-width="5.72917" stroke-linecap="round" stroke-miterlimit="8" fill="none" fill-rule="evenodd"/><path d="M1754 2076 1754 2187.48" stroke="#000000" stroke-width="5.72917" stroke-linecap="round" stroke-miterlimit="8" fill="none" fill-rule="evenodd"/><path d="M1756 1751 1756.44 1877.2" stroke="#000000" stroke-width="5.72917" stroke-linecap="round" stroke-miterlimit="8" fill="none" fill-rule="evenodd"/><path d="M1679 2244.5C1679 2200.04 1713.03 2164 1755 2164 1796.97 2164 1831 2200.04 1831 2244.5 1831 2288.96 1796.97 2325 1755 2325 1713.03 2325 1679 2288.96 1679 2244.5Z" stroke="#000000" stroke-width="5.72917" stroke-linejoin="round" stroke-miterlimit="10" fill="#F2F2F2" fill-rule="evenodd"/><path d="M0 0 2.47125 0 2.47125 484.1 932.609 484.1" stroke="#000000" stroke-width="5.72917" stroke-linecap="round" stroke-miterlimit="8" fill="none" fill-rule="evenodd" transform="matrix(-1 1.22465e-16 1.22465e-16 1 2763.61 1185)"/><path d="M1758.86 925 1758.86 1021.58 1753.14 1021.58 1753.14 925ZM1769.75 1016.99 1756 1044.49 1742.25 1016.99Z"/><path d="M1757.86 710 1757.86 806.577 1752.14 806.577 1752.14 710ZM1768.75 801.994 1755 829.494 1741.25 801.994Z"/><path d="M0 0 0.538812 49.3351" stroke="#000000" stroke-width="5.72917" stroke-linecap="round" stroke-miterlimit="8" fill="none" fill-rule="evenodd" transform="matrix(-1 0 0 1 1755.54 1539)"/><path d="M1755 1185 1755.44 1311.19" stroke="#000000" stroke-width="5.72917" stroke-linecap="round" stroke-miterlimit="8" fill="none" fill-rule="evenodd"/><path d="M1406.5 1307.83C1406.5 1282.24 1427.24 1261.5 1452.83 1261.5L2059.17 1261.5C2084.76 1261.5 2105.5 1282.24 2105.5 1307.83L2105.5 1493.17C2105.5 1518.76 2084.76 1539.5 2059.17 1539.5L1452.83 1539.5C1427.24 1539.5 1406.5 1518.76 1406.5 1493.17Z" stroke="#7F7F7F" stroke-width="4.58333" stroke-linejoin="round" stroke-miterlimit="10" fill="#F5F5F5" fill-rule="evenodd"/><path d="M1842.5 1127.5 2119.23 1127.5" stroke="#000000" stroke-width="3.4375" stroke-linecap="round" stroke-miterlimit="8" stroke-dasharray="6.875 6.875" fill="none" fill-rule="evenodd"/><path d="M2447.5 1132.5 2688.66 1132.5" stroke="#000000" stroke-width="3.4375" stroke-linecap="round" stroke-miterlimit="8" stroke-dasharray="6.875 6.875" fill="none" fill-rule="evenodd"/><rect x="1507.5" y="342.5" width="252" height="97.0003" stroke="#FFFFFF" stroke-width="3.4375" stroke-miterlimit="8" fill="#FFFFFF"/><rect x="0" y="0" width="76" height="81.0001" stroke="#2C6476" stroke-width="4.58333" stroke-linejoin="round" stroke-miterlimit="10" fill="#5EABC3" transform="matrix(1 0 0 -1 1643.5 732.5)"/><rect x="0" y="0" width="76" height="81.0001" stroke="#2C6476" stroke-width="4.58333" stroke-linejoin="round" stroke-miterlimit="10" fill="#9DCCDB" transform="matrix(1 0 0 -1 1720.5 732.5)"/><rect x="0" y="0" width="76" height="81.0001" stroke="#2C6476" stroke-width="4.58333" stroke-linejoin="round" stroke-miterlimit="10" fill="#BEE1EC" transform="matrix(1 0 0 -1 1796.5 732.5)"/><rect x="0" y="0" width="76" height="81.0001" stroke="#2C6476" stroke-width="4.58333" stroke-linejoin="round" stroke-miterlimit="10" fill="#EDF7F9" transform="matrix(1 0 0 -1 1492.5 732.5)"/><rect x="0" y="0" width="76" height="81.0001" stroke="#2C6476" stroke-width="4.58333" stroke-linejoin="round" stroke-miterlimit="10" fill="#9DCCDB" transform="matrix(1 0 0 -1 1568.5 732.5)"/><rect x="0" y="0" width="76" height="81.0001" stroke="#2C6476" stroke-width="4.58333" stroke-linejoin="round" stroke-miterlimit="10" fill="#5EABC3" fill-opacity="0.701961" transform="matrix(1 0 0 -1 1871.5 732.5)"/><rect x="0" y="0" width="76.0003" height="81.0001" stroke="#2C6476" stroke-width="4.58333" stroke-linejoin="round" stroke-miterlimit="10" fill="#EDF7F9" transform="matrix(1 0 0 -1 1947.5 732.5)"/><rect x="0" y="0" width="76" height="80.9998" stroke="#2C6476" stroke-width="4.58333" stroke-linejoin="round" stroke-miterlimit="10" fill="#BEE1EC" transform="matrix(1 0 0 -1 1719.5 542.5)"/><rect x="0" y="0" width="76" height="80.9998" stroke="#2C6476" stroke-width="4.58333" stroke-linejoin="round" stroke-miterlimit="10" fill="#9DCCDB" transform="matrix(1 0 0 -1 1643.5 542.5)"/><rect x="0" y="0" width="76" height="80.9998" stroke="#2C6476" stroke-width="4.58333" stroke-linejoin="round" stroke-miterlimit="10" fill="#EDF7F9" transform="matrix(1 0 0 -1 1795.5 542.5)"/><path d="M0 0 146.504 108.117" stroke="#000000" stroke-width="3.4375" stroke-linecap="round" stroke-miterlimit="8" stroke-dasharray="6.875 6.875" fill="none" fill-rule="evenodd" transform="matrix(1 0 0 -1 1493.5 650.617)"/><path d="M1871.5 542.5 2024.02 650.617" stroke="#000000" stroke-width="3.4375" stroke-linecap="round" stroke-miterlimit="8" stroke-dasharray="6.875 6.875" fill="none" fill-rule="evenodd"/><text font-family="Arial,Arial_MSFontService,sans-serif" font-weight="400" font-size="55" transform="matrix(1 0 0 1 1636.28 613)">projection</text><path d="M1759.86 331 1759.88 438.111 1754.15 438.112 1754.14 331ZM1770.77 433.526 1757.02 461.028 1743.27 433.53Z"/><path d="M1554 207.667C1554 194.044 1565.04 183 1578.67 183L1935.33 183C1948.96 183 1960 194.044 1960 207.667L1960 306.333C1960 319.956 1948.96 331 1935.33 331L1578.67 331C1565.04 331 1554 319.956 1554 306.333Z" stroke="#184A94" stroke-width="5.72917" stroke-miterlimit="8" fill="#CDDDF1" fill-rule="evenodd" fill-opacity="0.501961"/><text font-family="Arial,Arial_MSFontService,sans-serif" font-weight="400" font-size="55" transform="matrix(1 0 0 1 1621.26 277)">RMS Norm</text><path d="M1759 388.135 2765.28 388.135 2765.28 448.311 2759.55 448.311 2759.55 391 2762.41 393.864 1759 393.864ZM2776.16 443.728 2762.41 471.228 2748.66 443.728Z"/><rect x="0" y="0" width="76" height="81.0001" stroke="#2C6476" stroke-width="4.58333" stroke-linejoin="round" stroke-miterlimit="10" fill="#5EABC3" transform="matrix(1 0 0 -1 2648.5 741.5)"/><rect x="0" y="0" width="76" height="81.0001" stroke="#2C6476" stroke-width="4.58333" stroke-linejoin="round" stroke-miterlimit="10" fill="#9DCCDB" transform="matrix(1 0 0 -1 2724.5 741.5)"/><rect x="0" y="0" width="76" height="81.0001" stroke="#2C6476" stroke-width="4.58333" stroke-linejoin="round" stroke-miterlimit="10" fill="#BEE1EC" transform="matrix(1 0 0 -1 2801.5 741.5)"/><rect x="0" y="0" width="76.0003" height="81.0001" stroke="#2C6476" stroke-width="4.58333" stroke-linejoin="round" stroke-miterlimit="10" fill="#EDF7F9" transform="matrix(1 0 0 -1 2497.5 741.5)"/><rect x="0" y="0" width="76" height="81.0001" stroke="#2C6476" stroke-width="4.58333" stroke-linejoin="round" stroke-miterlimit="10" fill="#9DCCDB" transform="matrix(1 0 0 -1 2572.5 741.5)"/><rect x="0" y="0" width="76" height="81.0001" stroke="#2C6476" stroke-width="4.58333" stroke-linejoin="round" stroke-miterlimit="10" fill="#5EABC3" fill-opacity="0.701961" transform="matrix(1 0 0 -1 2876.5 741.5)"/><rect x="0" y="0" width="76" height="81.0001" stroke="#2C6476" stroke-width="4.58333" stroke-linejoin="round" stroke-miterlimit="10" fill="#EDF7F9" transform="matrix(1 0 0 -1 2952.5 741.5)"/><rect x="0" y="0" width="76" height="80.9998" stroke="#2C6476" stroke-width="4.58333" stroke-linejoin="round" stroke-miterlimit="10" fill="#BEE1EC" transform="matrix(1 0 0 -1 2724.5 552.5)"/><rect x="0" y="0" width="76" height="80.9998" stroke="#2C6476" stroke-width="4.58333" stroke-linejoin="round" stroke-miterlimit="10" fill="#9DCCDB" transform="matrix(1 0 0 -1 2648.5 552.5)"/><rect x="0" y="0" width="76" height="80.9998" stroke="#2C6476" stroke-width="4.58333" stroke-linejoin="round" stroke-miterlimit="10" fill="#EDF7F9" transform="matrix(1 0 0 -1 2800.5 552.5)"/><path d="M0 0 146.504 108.117" stroke="#000000" stroke-width="3.4375" stroke-linecap="round" stroke-miterlimit="8" stroke-dasharray="6.875 6.875" fill="none" fill-rule="evenodd" transform="matrix(1 0 0 -1 2497.5 660.617)"/><path d="M2875.5 552.5 3028.02 660.617" stroke="#000000" stroke-width="3.4375" stroke-linecap="round" stroke-miterlimit="8" stroke-dasharray="6.875 6.875" fill="none" fill-rule="evenodd"/><text font-family="Arial,Arial_MSFontService,sans-serif" font-weight="400" font-size="55" transform="matrix(1 0 0 1 2641.15 622)">projection</text><rect x="1470" y="851.668" width="51.3324" height="109.333" fill="#FEDABD"/><path d="M1521.33 851.668 1541 832 1541 941.332 1521.33 961Z" fill="#CCAF98" fill-rule="evenodd"/><path d="M1470 851.668 1489.67 832 1541 832 1521.33 851.668Z" fill="#FEE1CA" fill-rule="evenodd"/><path d="M1470 851.668 1489.67 832 1541 832 1541 941.332 1521.33 961 1470 961ZM1470 851.668 1521.33 851.668 1541 832M1521.33 851.668 1521.33 961" stroke="#000000" stroke-width="5.72917" stroke-miterlimit="8" fill="none" fill-rule="evenodd"/><rect x="1568" y="851.157" width="355.844" height="105.843" fill="#DAE6C1"/><path d="M1923.84 851.157 1947 828 1947 933.843 1923.84 957Z" fill="#AFB99B" fill-rule="evenodd"/><path d="M1568 851.157 1591.16 828 1947 828 1923.84 851.157Z" fill="#E1EBCD" fill-rule="evenodd"/><path d="M1568 851.157 1591.16 828 1947 828 1947 933.843 1923.84 957 1568 957ZM1568 851.157 1923.84 851.157 1947 828M1923.84 851.157 1923.84 957" stroke="#000000" stroke-width="5.72917" stroke-miterlimit="8" fill="none" fill-rule="evenodd"/><text font-family="Arial,Arial_MSFontService,sans-serif" font-weight="400" font-size="55" transform="matrix(1 0 0 1 1604.92 921)">Convolution</text><rect x="1975" y="847.668" width="51.3325" height="108.332" fill="#E8BBB7"/><path d="M2026.33 847.668 2046 828 2046 936.332 2026.33 956Z" fill="#BB9693" fill-rule="evenodd"/><path d="M1975 847.668 1994.67 828 2046 828 2026.33 847.668Z" fill="#EDC8C5" fill-rule="evenodd"/><path d="M1975 847.668 1994.67 828 2046 828 2046 936.332 2026.33 956 1975 956ZM1975 847.668 2026.33 847.668 2046 828M2026.33 847.668 2026.33 956" stroke="#000000" stroke-width="5.72917" stroke-miterlimit="8" fill="none" fill-rule="evenodd"/><path d="M1679 1125C1679 1080.82 1713.03 1045 1755 1045 1796.97 1045 1831 1080.82 1831 1125 1831 1169.18 1796.97 1205 1755 1205 1713.03 1205 1679 1169.18 1679 1125Z" stroke="#31787F" stroke-width="5.72917" stroke-linejoin="round" stroke-miterlimit="10" fill="#EDF7F8" fill-rule="evenodd"/><text font-family="Arial,Arial_MSFontService,sans-serif" font-weight="400" font-size="55" transform="matrix(1 0 0 1 1708.41 1142)">Silu</text><path d="M2764.86 740.989 2766 1028.94 2760.27 1028.96 2759.14 741.011ZM2776.87 1024.31 2763.23 1051.87 2749.37 1024.42Z"/><path d="M2688 1122.5C2688 1078.04 2722.03 1042 2764 1042 2805.97 1042 2840 1078.04 2840 1122.5 2840 1166.96 2805.97 1203 2764 1203 2722.03 1203 2688 1166.96 2688 1122.5Z" stroke="#31787F" stroke-width="5.72917" stroke-linejoin="round" stroke-miterlimit="10" fill="#EDF7F8" fill-rule="evenodd"/><text font-family="Arial,Arial_MSFontService,sans-serif" font-weight="400" font-size="55" transform="matrix(1 0 0 1 2716.9 1140)">Silu</text><text font-family="Arial,Arial_MSFontService,sans-serif" font-weight="400" font-size="64" transform="matrix(1 0 0 1 2151.98 1150)">activation</text><rect x="0" y="0" width="43" height="46.0001" stroke="#184489" stroke-width="4.58333" stroke-linejoin="round" stroke-miterlimit="10" fill="#F0F4FB" transform="matrix(-1 0 0 1 1543.5 1304.5)"/><rect x="0" y="0" width="43" height="46.0001" stroke="#184489" stroke-width="4.58333" stroke-linejoin="round" stroke-miterlimit="10" fill="#3776C9" transform="matrix(-1 0 0 1 1586.5 1304.5)"/><rect x="0" y="0" width="43" height="46.0001" stroke="#184489" stroke-width="4.58333" stroke-linejoin="round" stroke-miterlimit="10" fill="#98B8E3" transform="matrix(-1 0 0 1 1629.5 1304.5)"/><rect x="0" y="0" width="43" height="45" stroke="#184489" stroke-width="4.58333" stroke-linejoin="round" stroke-miterlimit="10" fill="#3776C9" transform="matrix(-1 0 0 1 1543.5 1350.5)"/><rect x="0" y="0" width="43" height="45" stroke="#184489" stroke-width="4.58333" stroke-linejoin="round" stroke-miterlimit="10" fill="#CDDDF1" transform="matrix(-1 0 0 1 1586.5 1350.5)"/><rect x="0" y="0" width="43" height="45" stroke="#184489" stroke-width="4.58333" stroke-linejoin="round" stroke-miterlimit="10" fill="#3776C9" transform="matrix(-1 0 0 1 1629.5 1350.5)"/><rect x="0" y="0" width="43" height="44.9997" stroke="#184489" stroke-width="4.58333" stroke-linejoin="round" stroke-miterlimit="10" fill="#CDDDF1" transform="matrix(-1 0 0 1 1543.5 1396.5)"/><rect x="0" y="0" width="43" height="44.9997" stroke="#184489" stroke-width="4.58333" stroke-linejoin="round" stroke-miterlimit="10" fill="#98B8E3" transform="matrix(-1 0 0 1 1586.5 1396.5)"/><rect x="0" y="0" width="43" height="44.9997" stroke="#184489" stroke-width="4.58333" stroke-linejoin="round" stroke-miterlimit="10" fill="#F0F4FB" transform="matrix(-1 0 0 1 1629.5 1396.5)"/><rect x="0" y="0" width="43" height="46.0001" stroke="#184489" stroke-width="4.58333" stroke-linejoin="round" stroke-miterlimit="10" fill="#3776C9" transform="matrix(-1 0 0 1 1543.5 1441.5)"/><rect x="0" y="0" width="43" height="46.0001" stroke="#184489" stroke-width="4.58333" stroke-linejoin="round" stroke-miterlimit="10" fill="#FFFFFF" transform="matrix(-1 0 0 1 1586.5 1441.5)"/><rect x="0" y="0" width="43" height="46.0001" stroke="#184489" stroke-width="4.58333" stroke-linejoin="round" stroke-miterlimit="10" fill="#CDDDF1" transform="matrix(-1 0 0 1 1629.5 1441.5)"/><rect x="0" y="0" width="43" height="45" stroke="#9A3232" stroke-width="4.58333" stroke-linejoin="round" stroke-miterlimit="10" fill="#F8EBEB" transform="matrix(1 0 0 -1 1775.5 1487.5)"/><rect x="0" y="0" width="43" height="45" stroke="#9A3232" stroke-width="4.58333" stroke-linejoin="round" stroke-miterlimit="10" fill="#F1D8D7" transform="matrix(1 0 0 -1 1732.5 1487.5)"/><rect x="0" y="0" width="43" height="45" stroke="#9A3232" stroke-width="4.58333" stroke-linejoin="round" stroke-miterlimit="10" fill="#DF9E9B" transform="matrix(1 0 0 -1 1689.5 1487.5)"/><rect x="0" y="0" width="43" height="45.9997" stroke="#9A3232" stroke-width="4.58333" stroke-linejoin="round" stroke-miterlimit="10" fill="#DF9E9B" transform="matrix(1 0 0 -1 1775.5 1442.5)"/><rect x="0" y="0" width="43" height="45.9997" stroke="#9A3232" stroke-width="4.58333" stroke-linejoin="round" stroke-miterlimit="10" fill="#F1D8D7" transform="matrix(1 0 0 -1 1732.5 1442.5)"/><rect x="0" y="0" width="43" height="45.9997" stroke="#9A3232" stroke-width="4.58333" stroke-linejoin="round" stroke-miterlimit="10" fill="#CA6261" transform="matrix(1 0 0 -1 1689.5 1442.5)"/><rect x="0" y="0" width="43" height="46.0001" stroke="#9A3232" stroke-width="4.58333" stroke-linejoin="round" stroke-miterlimit="10" fill="#F1D8D7" transform="matrix(1 0 0 -1 1775.5 1396.5)"/><rect x="0" y="0" width="43" height="46.0001" stroke="#9A3232" stroke-width="4.58333" stroke-linejoin="round" stroke-miterlimit="10" fill="#CB6261" transform="matrix(1 0 0 -1 1732.5 1396.5)"/><rect x="0" y="0" width="43" height="46.0001" stroke="#9A3232" stroke-width="4.58333" stroke-linejoin="round" stroke-miterlimit="10" fill="#DF9E9B" transform="matrix(1 0 0 -1 1689.5 1396.5)"/><rect x="0" y="0" width="43" height="46.0001" stroke="#9A3232" stroke-width="4.58333" stroke-linejoin="round" stroke-miterlimit="10" fill="#F8EBEB" transform="matrix(1 0 0 -1 1775.5 1350.5)"/><rect x="0" y="0" width="43" height="46.0001" stroke="#9A3232" stroke-width="4.58333" stroke-linejoin="round" stroke-miterlimit="10" fill="#DF9E9B" transform="matrix(1 0 0 -1 1732.5 1350.5)"/><rect x="0" y="0" width="43" height="46.0001" stroke="#9A3232" stroke-width="4.58333" stroke-linejoin="round" stroke-miterlimit="10" fill="#CB6261" transform="matrix(1 0 0 -1 1689.5 1350.5)"/><rect x="1968.5" y="1304.5" width="43" height="46.0001" stroke="#815BA9" stroke-width="4.58333" stroke-linejoin="round" stroke-miterlimit="10" fill="#F0ECF7"/><rect x="1925.5" y="1304.5" width="43.0004" height="46.0001" stroke="#815BA9" stroke-width="4.58333" stroke-linejoin="round" stroke-miterlimit="10" fill="#B99EE0"/><rect x="1883.5" y="1304.5" width="41.9999" height="46.0001" stroke="#815BA9" stroke-width="4.58333" stroke-linejoin="round" stroke-miterlimit="10" fill="#8F62CA"/><rect x="1968.5" y="1350.5" width="43" height="46.0001" stroke="#815BA9" stroke-width="4.58333" stroke-linejoin="round" stroke-miterlimit="10" fill="#B79FE0"/><rect x="1925.5" y="1350.5" width="43.0004" height="46.0001" stroke="#815BA9" stroke-width="4.58333" stroke-linejoin="round" stroke-miterlimit="10" fill="#9161CA"/><rect x="1883.5" y="1350.5" width="41.9999" height="46.0001" stroke="#815BA9" stroke-width="4.58333" stroke-linejoin="round" stroke-miterlimit="10" fill="#F2EBF9"/><rect x="1968.5" y="1396.5" width="43" height="44.9996" stroke="#815BA9" stroke-width="4.58333" stroke-linejoin="round" stroke-miterlimit="10" fill="#F3EAF9"/><rect x="1925.5" y="1396.5" width="43.0004" height="44.9996" stroke="#815BA9" stroke-width="4.58333" stroke-linejoin="round" stroke-miterlimit="10" fill="#B99EE0"/><rect x="1883.5" y="1396.5" width="41.9999" height="44.9996" stroke="#815BA9" stroke-width="4.58333" stroke-linejoin="round" stroke-miterlimit="10" fill="#B99EE0"/><rect x="1968.5" y="1442.5" width="43" height="45" stroke="#815BA9" stroke-width="4.58333" stroke-linejoin="round" stroke-miterlimit="10" fill="#9061CA"/><rect x="1925.5" y="1442.5" width="43.0004" height="45" stroke="#815BA9" stroke-width="4.58333" stroke-linejoin="round" stroke-miterlimit="10" fill="#F2EBF9"/><rect x="1883.5" y="1442.5" width="41.9999" height="45" stroke="#815BA9" stroke-width="4.58333" stroke-linejoin="round" stroke-miterlimit="10" fill="#D6C5EA"/><path d="M1679 1669.5C1679 1625.04 1713.03 1589 1755 1589 1796.97 1589 1831 1625.04 1831 1669.5 1831 1713.96 1796.97 1750 1755 1750 1713.03 1750 1679 1713.96 1679 1669.5Z" stroke="#000000" stroke-width="5.72917" stroke-linejoin="round" stroke-miterlimit="10" fill="#F2F2F2" fill-rule="evenodd"/><text font-family="DengXian,DengXian_MSFontService,sans-serif" font-weight="400" font-size="92" transform="matrix(1 0 0 1 1728.93 1696)">×</text><rect x="0" y="0" width="76" height="81.0001" stroke="#2C6476" stroke-width="4.58333" stroke-linejoin="round" stroke-miterlimit="10" fill="#5EABC3" transform="matrix(-1 1.22465e-16 1.22465e-16 1 1871.5 1809.5)"/><rect x="0" y="0" width="76" height="81.0001" stroke="#2C6476" stroke-width="4.58333" stroke-linejoin="round" stroke-miterlimit="10" fill="#9DCCDB" transform="matrix(-1 1.22465e-16 1.22465e-16 1 1795.5 1809.5)"/><rect x="0" y="0" width="76" height="81.0001" stroke="#2C6476" stroke-width="4.58333" stroke-linejoin="round" stroke-miterlimit="10" fill="#BEE1EC" transform="matrix(-1 1.22465e-16 1.22465e-16 1 1718.5 1809.5)"/><rect x="0" y="0" width="76.0003" height="81.0001" stroke="#2C6476" stroke-width="4.58333" stroke-linejoin="round" stroke-miterlimit="10" fill="#EDF7F9" transform="matrix(-1 1.22465e-16 1.22465e-16 1 2023.5 1809.5)"/><rect x="0" y="0" width="76" height="81.0001" stroke="#2C6476" stroke-width="4.58333" stroke-linejoin="round" stroke-miterlimit="10" fill="#9DCCDB" transform="matrix(-1 1.22465e-16 1.22465e-16 1 1947.5 1809.5)"/><rect x="0" y="0" width="76" height="81.0001" stroke="#2C6476" stroke-width="4.58333" stroke-linejoin="round" stroke-miterlimit="10" fill="#5EABC3" fill-opacity="0.701961" transform="matrix(-1 1.22465e-16 1.22465e-16 1 1643.5 1809.5)"/><rect x="0" y="0" width="76" height="81.0001" stroke="#2C6476" stroke-width="4.58333" stroke-linejoin="round" stroke-miterlimit="10" fill="#EDF7F9" transform="matrix(-1 1.22465e-16 1.22465e-16 1 1567.5 1809.5)"/><rect x="0" y="0" width="76" height="80.9998" stroke="#2C6476" stroke-width="4.58333" stroke-linejoin="round" stroke-miterlimit="10" fill="#BEE1EC" transform="matrix(-1 1.22465e-16 1.22465e-16 1 1795.5 1998.5)"/><rect x="0" y="0" width="76" height="80.9998" stroke="#2C6476" stroke-width="4.58333" stroke-linejoin="round" stroke-miterlimit="10" fill="#9DCCDB" transform="matrix(-1 1.22465e-16 1.22465e-16 1 1871.5 1998.5)"/><rect x="0" y="0" width="76" height="80.9998" stroke="#2C6476" stroke-width="4.58333" stroke-linejoin="round" stroke-miterlimit="10" fill="#EDF7F9" transform="matrix(-1 1.22465e-16 1.22465e-16 1 1720.5 1998.5)"/><path d="M0 0 146.504 108.117" stroke="#000000" stroke-width="3.4375" stroke-linecap="round" stroke-miterlimit="8" stroke-dasharray="6.875 6.875" fill="none" fill-rule="evenodd" transform="matrix(-1 1.22465e-16 1.22465e-16 1 2022 1890.5)"/><path d="M1644.02 1998.62 1491.5 1890.5" stroke="#000000" stroke-width="3.4375" stroke-linecap="round" stroke-miterlimit="8" stroke-dasharray="6.875 6.875" fill="none" fill-rule="evenodd"/><text font-family="Arial,Arial_MSFontService,sans-serif" font-weight="400" font-size="55" transform="matrix(1 0 0 1 1637.63 1959)">projection</text><text font-family="DengXian,DengXian_MSFontService,sans-serif" font-weight="400" font-size="92" transform="matrix(1 0 0 1 1709.11 2274)">＋</text><text font-family="Arial,Arial_MSFontService,sans-serif" font-weight="400" font-size="55" transform="matrix(1 0 0 1 2755.85 178)">Residual skip </text><text font-family="Arial,Arial_MSFontService,sans-serif" font-weight="400" font-size="55" transform="matrix(1 0 0 1 2786.22 244)">connection</text><path d="M1755.86 2328 1755.86 2442.21C1755.86 2443.79 1754.58 2445.07 1753 2445.07 1751.42 2445.07 1750.14 2443.79 1750.14 2442.21L1750.14 2328C1750.14 2326.42 1751.42 2325.14 1753 2325.14 1754.58 2325.14 1755.86 2326.42 1755.86 2328ZM1766.75 2437.63 1753 2465.13 1739.25 2437.63Z"/><text font-family="Arial,Arial_MSFontService,sans-serif" font-weight="400" font-size="73" transform="matrix(1 0 0 1 1165.35 2299)">Mamba block</text><text font-family="Arial,Arial_MSFontService,sans-serif" font-weight="400" font-size="64" transform="matrix(1 0 0 1 1272.83 1688)">multiplication</text><text font-family="Arial,Arial_MSFontService,sans-serif" font-weight="400" font-size="64" transform="matrix(1 0 0 1 2158.16 1381)">Selective </text><text font-family="Arial,Arial_MSFontService,sans-serif" font-weight="400" font-size="64" transform="matrix(1 0 0 1 2218.61 1458)">SSM</text><path d="M1759.86-5.63991e-06 1759.86 160.385 1754.14 160.385 1754.14 5.63991e-06ZM1770.75 155.802 1757 183.302 1743.25 155.802Z"/></g></svg>