<svg width="4437" height="2423" xmlns="http://www.w3.org/2000/svg" xmlns:xlink="http://www.w3.org/1999/xlink" xml:space="preserve" overflow="hidden"><g transform="translate(34 3)"><rect x="0" y="0" width="4400" height="2417" stroke="#FFFFFF" stroke-width="5.72917" stroke-miterlimit="8" fill="#FFFFFF"/><g><g><g><path d="M1796.08 2014.39C1796.08 1975.61 1827.51 1944.19 1866.28 1944.19L4640.81 1944.19C4679.59 1944.19 4711.02 1975.61 4711.02 2014.39L4711.02 2817.8C4711.02 2856.58 4679.59 2888 4640.81 2888L1866.28 2888C1827.51 2888 1796.08 2856.58 1796.08 2817.8Z" stroke="#000000" stroke-width="7.71369" stroke-linecap="round" stroke-miterlimit="8" stroke-dasharray="53.9959 30.8548 0 30.8548" fill="#FFFFFF" fill-rule="evenodd" transform="matrix(1 0 0 1.00031 -349.055 -701.229)"/><path d="M382.375 2014.39C382.375 1975.61 413.805 1944.19 452.575 1944.19L1638.37 1944.19C1677.14 1944.19 1708.57 1975.61 1708.57 2014.39L1708.57 2817.8C1708.57 2856.58 1677.14 2888 1638.37 2888L452.575 2888C413.805 2888 382.375 2856.58 382.375 2817.8Z" stroke="#000000" stroke-width="7.71369" stroke-linecap="round" stroke-miterlimit="8" stroke-dasharray="53.9959 30.8548 0 30.8548" fill="#FFFFFF" fill-rule="evenodd" transform="matrix(1 0 0 1.00031 -349.055 -701.229)"/><text fill="#245362" font-family="Arial,Arial_MSFontService,sans-serif" font-weight="400" font-size="64" transform="matrix(1.34639 0 0 1.34681 1477.16 198)">In</text><text fill="#245362" font-family="Arial,Arial_MSFontService,sans-serif" font-weight="400" font-size="64" transform="matrix(1.34639 0 0 1.34681 1548.9 198)">pu</text><text fill="#245362" font-family="Arial,Arial_MSFontService,sans-serif" font-weight="400" font-size="64" transform="matrix(1.34639 0 0 1.34681 1644.54 198)">t</text><path d="M0 0 109.058 0 109.058 115.789-1.10117e-06 115.789Z" stroke="#2C6476" stroke-width="6.17095" stroke-linejoin="round" stroke-miterlimit="10" fill="#EDF7F9" transform="matrix(1 -1.22503e-16 -1.22465e-16 -1.00031 1582.34 891.371)"/><path d="M0 0 107.711 0 107.711 115.789-1.10117e-06 115.789Z" stroke="#2C6476" stroke-width="6.17095" stroke-linejoin="round" stroke-miterlimit="10" fill="#CEE8F0" transform="matrix(1 -1.22503e-16 -1.22465e-16 -1.00031 1474.63 891.371)"/><path d="M0 0 109.057 0 109.057 115.789 2.20235e-06 115.789Z" stroke="#2C6476" stroke-width="6.17095" stroke-linejoin="round" stroke-miterlimit="10" fill="#5EABC3" transform="matrix(1 -1.22503e-16 -1.22465e-16 -1.00031 1365.57 891.371)"/><path d="M0 0 109.058 0 109.058 115.789-1.10117e-06 115.789Z" stroke="#2C6476" stroke-width="6.17095" stroke-linejoin="round" stroke-miterlimit="10" fill="#5EABC3" transform="matrix(1 -1.22503e-16 -1.22465e-16 -1.00031 1582.34 775.545)"/><path d="M0 0 107.711 0 107.711 115.789-1.10117e-06 115.789Z" stroke="#2C6476" stroke-width="6.17095" stroke-linejoin="round" stroke-miterlimit="10" fill="#EDF7F9" transform="matrix(1 -1.22503e-16 -1.22465e-16 -1.00031 1474.63 775.545)"/><path d="M0 0 109.057 0 109.057 115.789 2.20235e-06 115.789Z" stroke="#2C6476" stroke-width="6.17095" stroke-linejoin="round" stroke-miterlimit="10" fill="#98CFE0" transform="matrix(1 -1.22503e-16 -1.22465e-16 -1.00031 1365.57 775.545)"/><path d="M0 0 109.058 0 109.058 115.79-1.10117e-06 115.79Z" stroke="#2C6476" stroke-width="6.17095" stroke-linejoin="round" stroke-miterlimit="10" fill="#EDF7F9" transform="matrix(1 -1.22503e-16 -1.22465e-16 -1.00031 1582.34 659.72)"/><path d="M0 0 107.711 0 107.711 115.79-1.10117e-06 115.79Z" stroke="#2C6476" stroke-width="6.17095" stroke-linejoin="round" stroke-miterlimit="10" fill="#98CFE0" transform="matrix(1 -1.22503e-16 -1.22465e-16 -1.00031 1474.63 659.72)"/><path d="M0 0 109.057 0 109.057 115.79 2.20235e-06 115.79Z" stroke="#2C6476" stroke-width="6.17095" stroke-linejoin="round" stroke-miterlimit="10" fill="#CEE8F0" transform="matrix(1 -1.22503e-16 -1.22465e-16 -1.00031 1365.57 659.72)"/><path d="M0 0 109.058 0 109.058 114.443-1.10117e-06 114.443Z" stroke="#2C6476" stroke-width="6.17095" stroke-linejoin="round" stroke-miterlimit="10" fill="#5EABC3" transform="matrix(1 -1.22503e-16 -1.22465e-16 -1.00031 1582.34 542.547)"/><path d="M0 0 107.711 0 107.711 114.443-1.10117e-06 114.443Z" stroke="#2C6476" stroke-width="6.17095" stroke-linejoin="round" stroke-miterlimit="10" fill="#EDF7F9" transform="matrix(1 -1.22503e-16 -1.22465e-16 -1.00031 1474.63 542.547)"/><path d="M0 0 109.057 0 109.057 114.443 2.20235e-06 114.443Z" stroke="#2C6476" stroke-width="6.17095" stroke-linejoin="round" stroke-miterlimit="10" fill="#CEE8F0" transform="matrix(1 -1.22503e-16 -1.22465e-16 -1.00031 1365.57 542.547)"/><path d="M1744.25 1505.94 1853.3 1505.94 1853.3 1621.73 1744.25 1621.73Z" stroke="#2C6476" stroke-width="6.17095" stroke-linejoin="round" stroke-miterlimit="10" fill="#EDF7F9" transform="matrix(1 0 0 1.00031 -349.055 -701.229)"/><path d="M1853.3 1505.94 1961.02 1505.94 1961.02 1621.73 1853.3 1621.73Z" stroke="#2C6476" stroke-width="6.17095" stroke-linejoin="round" stroke-miterlimit="10" fill="#CEE8F0" transform="matrix(1 0 0 1.00031 -349.055 -701.229)"/><path d="M1961.02 1505.94 2070.07 1505.94 2070.07 1621.73 1961.02 1621.73Z" stroke="#2C6476" stroke-width="6.17095" stroke-linejoin="round" stroke-miterlimit="10" fill="#5EABC3" transform="matrix(1 0 0 1.00031 -349.055 -701.229)"/><path d="M1744.25 1390.15 1853.3 1390.15 1853.3 1505.94 1744.25 1505.94Z" stroke="#2C6476" stroke-width="6.17095" stroke-linejoin="round" stroke-miterlimit="10" fill="#5EABC3" transform="matrix(1 0 0 1.00031 -349.055 -701.229)"/><path d="M1853.3 1390.15 1961.02 1390.15 1961.02 1505.94 1853.3 1505.94Z" stroke="#2C6476" stroke-width="6.17095" stroke-linejoin="round" stroke-miterlimit="10" fill="#EDF7F9" transform="matrix(1 0 0 1.00031 -349.055 -701.229)"/><path d="M1961.02 1390.15 2070.07 1390.15 2070.07 1505.94 1961.02 1505.94Z" stroke="#2C6476" stroke-width="6.17095" stroke-linejoin="round" stroke-miterlimit="10" fill="#98CFE0" transform="matrix(1 0 0 1.00031 -349.055 -701.229)"/><path d="M1744.25 1274.36 1853.3 1274.36 1853.3 1388.8 1744.25 1388.8Z" stroke="#2C6476" stroke-width="6.17095" stroke-linejoin="round" stroke-miterlimit="10" fill="#EDF7F9" transform="matrix(1 0 0 1.00031 -349.055 -701.229)"/><path d="M1853.3 1274.36 1961.02 1274.36 1961.02 1388.8 1853.3 1388.8Z" stroke="#2C6476" stroke-width="6.17095" stroke-linejoin="round" stroke-miterlimit="10" fill="#98CFE0" transform="matrix(1 0 0 1.00031 -349.055 -701.229)"/><path d="M1961.02 1274.36 2070.07 1274.36 2070.07 1388.8 1961.02 1388.8Z" stroke="#2C6476" stroke-width="6.17095" stroke-linejoin="round" stroke-miterlimit="10" fill="#CEE8F0" transform="matrix(1 0 0 1.00031 -349.055 -701.229)"/><path d="M1744.25 1157.22 1853.3 1157.22 1853.3 1273.01 1744.25 1273.01Z" stroke="#2C6476" stroke-width="6.17095" stroke-linejoin="round" stroke-miterlimit="10" fill="#5EABC3" transform="matrix(1 0 0 1.00031 -349.055 -701.229)"/><path d="M1853.3 1157.22 1961.02 1157.22 1961.02 1273.01 1853.3 1273.01Z" stroke="#2C6476" stroke-width="6.17095" stroke-linejoin="round" stroke-miterlimit="10" fill="#EDF7F9" transform="matrix(1 0 0 1.00031 -349.055 -701.229)"/><path d="M1961.02 1157.22 2070.07 1157.22 2070.07 1273.01 1961.02 1273.01Z" stroke="#2C6476" stroke-width="6.17095" stroke-linejoin="round" stroke-miterlimit="10" fill="#CEE8F0" transform="matrix(1 0 0 1.00031 -349.055 -701.229)"/><path d="M0 0 107.711 0 107.711 115.789 3.30352e-06 115.789Z" stroke="#2C6476" stroke-width="6.17095" stroke-linejoin="round" stroke-miterlimit="10" fill="#EDF7F9" transform="matrix(-1 0 0 1.00031 1535.22 490.022)"/><path d="M0 0 109.058 0 109.058 115.789-1.10117e-06 115.789Z" stroke="#2C6476" stroke-width="6.17095" stroke-linejoin="round" stroke-miterlimit="10" fill="#CEE8F0" transform="matrix(-1 0 0 1.00031 1644.27 490.022)"/><path d="M0 0 107.711 0 107.711 115.789-1.10117e-06 115.789Z" stroke="#2C6476" stroke-width="6.17095" stroke-linejoin="round" stroke-miterlimit="10" fill="#5EABC3" transform="matrix(-1 0 0 1.00031 1751.99 490.022)"/><path d="M0 0 107.711 0 107.711 115.789 3.30352e-06 115.789Z" stroke="#2C6476" stroke-width="6.17095" stroke-linejoin="round" stroke-miterlimit="10" fill="#5EABC3" transform="matrix(-1 0 0 1.00031 1535.22 605.847)"/><path d="M0 0 109.058 0 109.058 115.789-1.10117e-06 115.789Z" stroke="#2C6476" stroke-width="6.17095" stroke-linejoin="round" stroke-miterlimit="10" fill="#EDF7F9" transform="matrix(-1 0 0 1.00031 1644.27 605.847)"/><path d="M0 0 107.711 0 107.711 115.789-1.10117e-06 115.789Z" stroke="#2C6476" stroke-width="6.17095" stroke-linejoin="round" stroke-miterlimit="10" fill="#98CFE0" transform="matrix(-1 0 0 1.00031 1751.99 605.847)"/><path d="M0 0 107.711 0 107.711 115.79 3.30352e-06 115.79Z" stroke="#2C6476" stroke-width="6.17095" stroke-linejoin="round" stroke-miterlimit="10" fill="#EDF7F9" transform="matrix(-1 0 0 1.00031 1535.22 721.673)"/><path d="M0 0 109.058 0 109.058 115.79-1.10117e-06 115.79Z" stroke="#2C6476" stroke-width="6.17095" stroke-linejoin="round" stroke-miterlimit="10" fill="#98CFE0" transform="matrix(-1 0 0 1.00031 1644.27 721.673)"/><path d="M0 0 107.711 0 107.711 115.79-1.10117e-06 115.79Z" stroke="#2C6476" stroke-width="6.17095" stroke-linejoin="round" stroke-miterlimit="10" fill="#5EABC3" transform="matrix(-1 0 0 1.00031 1751.99 721.673)"/><path d="M0 0 107.711 0 107.711 115.789 3.30352e-06 115.789Z" stroke="#2C6476" stroke-width="6.17095" stroke-linejoin="round" stroke-miterlimit="10" fill="#5EABC3" transform="matrix(-1 0 0 1.00031 1535.22 837.498)"/><path d="M0 0 109.058 0 109.058 115.789-1.10117e-06 115.789Z" stroke="#2C6476" stroke-width="6.17095" stroke-linejoin="round" stroke-miterlimit="10" fill="#EDF7F9" transform="matrix(-1 0 0 1.00031 1644.27 837.498)"/><path d="M0 0 107.711 0 107.711 115.789-1.10117e-06 115.789Z" stroke="#2C6476" stroke-width="6.17095" stroke-linejoin="round" stroke-miterlimit="10" fill="#CEE8F0" transform="matrix(-1 0 0 1.00031 1751.99 837.498)"/><path d="M2024.3 1219.16 2133.35 1219.16 2133.35 1334.94 2024.3 1334.94Z" stroke="#2C6476" stroke-width="6.17095" stroke-linejoin="round" stroke-miterlimit="10" fill="#EDF7F9" transform="matrix(1 0 0 1.00031 -349.055 -701.229)"/><path d="M1916.58 1219.16 2024.3 1219.16 2024.3 1334.94 1916.58 1334.94Z" stroke="#2C6476" stroke-width="6.17095" stroke-linejoin="round" stroke-miterlimit="10" fill="#CEE8F0" transform="matrix(1 0 0 1.00031 -349.055 -701.229)"/><path d="M1807.53 1219.16 1916.59 1219.16 1916.59 1334.94 1807.53 1334.94Z" stroke="#2C6476" stroke-width="6.17095" stroke-linejoin="round" stroke-miterlimit="10" fill="#5EABC3" transform="matrix(1 0 0 1.00031 -349.055 -701.229)"/><path d="M2024.3 1334.94 2133.35 1334.94 2133.35 1450.73 2024.3 1450.73Z" stroke="#2C6476" stroke-width="6.17095" stroke-linejoin="round" stroke-miterlimit="10" fill="#5EABC3" transform="matrix(1 0 0 1.00031 -349.055 -701.229)"/><path d="M1916.58 1334.94 2024.3 1334.94 2024.3 1450.73 1916.58 1450.73Z" stroke="#2C6476" stroke-width="6.17095" stroke-linejoin="round" stroke-miterlimit="10" fill="#EDF7F9" transform="matrix(1 0 0 1.00031 -349.055 -701.229)"/><path d="M1807.53 1334.94 1916.59 1334.94 1916.59 1450.73 1807.53 1450.73Z" stroke="#2C6476" stroke-width="6.17095" stroke-linejoin="round" stroke-miterlimit="10" fill="#98CFE0" transform="matrix(1 0 0 1.00031 -349.055 -701.229)"/><path d="M2024.3 1450.73 2133.35 1450.73 2133.35 1566.52 2024.3 1566.52Z" stroke="#2C6476" stroke-width="6.17095" stroke-linejoin="round" stroke-miterlimit="10" fill="#EDF7F9" transform="matrix(1 0 0 1.00031 -349.055 -701.229)"/><path d="M1916.58 1450.73 2024.3 1450.73 2024.3 1566.52 1916.58 1566.52Z" stroke="#2C6476" stroke-width="6.17095" stroke-linejoin="round" stroke-miterlimit="10" fill="#98CFE0" transform="matrix(1 0 0 1.00031 -349.055 -701.229)"/><path d="M1807.53 1450.73 1916.59 1450.73 1916.59 1566.52 1807.53 1566.52Z" stroke="#2C6476" stroke-width="6.17095" stroke-linejoin="round" stroke-miterlimit="10" fill="#5EABC3" transform="matrix(1 0 0 1.00031 -349.055 -701.229)"/><path d="M2024.3 1566.52 2133.35 1566.52 2133.35 1682.31 2024.3 1682.31Z" stroke="#2C6476" stroke-width="6.17095" stroke-linejoin="round" stroke-miterlimit="10" fill="#5EABC3" transform="matrix(1 0 0 1.00031 -349.055 -701.229)"/><path d="M1916.58 1566.52 2024.3 1566.52 2024.3 1682.31 1916.58 1682.31Z" stroke="#2C6476" stroke-width="6.17095" stroke-linejoin="round" stroke-miterlimit="10" fill="#EDF7F9" transform="matrix(1 0 0 1.00031 -349.055 -701.229)"/><path d="M1807.53 1566.52 1916.59 1566.52 1916.59 1682.31 1807.53 1682.31Z" stroke="#2C6476" stroke-width="6.17095" stroke-linejoin="round" stroke-miterlimit="10" fill="#CEE8F0" transform="matrix(1 0 0 1.00031 -349.055 -701.229)"/><path d="M2101.48 1092.72 2143.49 1135.22C2144.39 1136.13 2144.38 1137.6 2143.48 1138.49 2142.56 1139.39 2141.1 1139.38 2140.21 1138.47L2098.2 1095.97C2097.3 1095.06 2097.31 1093.6 2098.21 1092.7 2099.13 1091.8 2100.58 1091.81 2101.48 1092.72ZM2091.01 1111.75 2078.15 1072.4 2117.34 1085.72ZM2150.68 1119.45 2163.54 1158.79 2124.35 1145.47Z" transform="matrix(1 0 0 1.00031 -349.055 -701.229)"/><text font-family="Arial,Arial_MSFontService,sans-serif" font-weight="400" font-size="55" transform="matrix(1.34639 0 0 1.34681 1834.88 383)">B</text><path d="M2180.1 1250.01 2180.1 1663.61C2180.1 1664.89 2179.06 1665.93 2177.78 1665.93 2176.51 1665.93 2175.47 1664.89 2175.47 1663.61L2175.47 1250.01C2175.47 1248.73 2176.51 1247.7 2177.78 1247.7 2179.06 1247.7 2180.1 1248.73 2180.1 1250.01ZM2159.27 1256.18 2177.78 1219.16 2196.3 1256.18ZM2196.3 1657.45 2177.78 1694.47 2159.27 1657.45Z" transform="matrix(1 0 0 1.00031 -349.055 -701.229)"/><text font-family="Arial,Arial_MSFontService,sans-serif" font-weight="400" font-size="55" transform="matrix(1.34639 0 0 1.34681 1903.82 743)">L</text><path d="M30.8547-2.31405 282.68-2.31366C283.958-2.31366 284.993-1.2776 284.993 0.000441671 284.993 1.27849 283.958 2.31455 282.68 2.31455L30.8547 2.31416C29.5767 2.31415 28.5406 1.27809 28.5406 4.4231e-05 28.5406-1.278 29.5767-2.31407 30.8547-2.31405ZM37.0257 18.5129 0 0 37.0257-18.5129ZM276.508-18.5124 313.534 0.000485901 276.508 18.5133Z" transform="matrix(-1 0 0 1.00031 1772.01 1034.13)"/><text font-family="Arial,Arial_MSFontService,sans-serif" font-weight="400" font-size="55" transform="matrix(1.34639 0 0 1.34681 1590 1124)">D</text><text font-family="Times New Roman,Times New Roman_MSFontService,sans-serif" font-style="italic" font-weight="400" font-size="73" transform="matrix(1.34639 0 0 1.34681 1549.77 316)">x</text><text font-family="Times New Roman,Times New Roman_MSFontService,sans-serif" font-style="italic" font-weight="400" font-size="49" transform="matrix(1.34639 0 0 1.34681 1593.74 339)">k</text><path d="M0 0 107.711 0 107.711 115.789-1.10117e-06 115.789Z" stroke="#815BA9" stroke-width="6.17095" stroke-linejoin="round" stroke-miterlimit="10" fill="#EDF7F9" transform="matrix(1 -1.22503e-16 -1.22465e-16 -1.00031 2324.2 888.677)"/><path d="M0 0 109.058 0 109.058 115.789-1.10117e-06 115.789Z" stroke="#815BA9" stroke-width="6.17095" stroke-linejoin="round" stroke-miterlimit="10" fill="#CEE8F0" transform="matrix(1 -1.22503e-16 -1.22465e-16 -1.00031 2215.14 888.677)"/><path d="M0 0 107.711 0 107.711 115.789 3.30352e-06 115.789Z" stroke="#815BA9" stroke-width="6.17095" stroke-linejoin="round" stroke-miterlimit="10" fill="#F2EBFB" transform="matrix(1 -1.22503e-16 -1.22465e-16 -1.00031 2107.43 888.677)"/><path d="M0 0 107.711 0 107.711 115.789-1.10117e-06 115.789Z" stroke="#815BA9" stroke-width="6.17095" stroke-linejoin="round" stroke-miterlimit="10" fill="#5EABC3" transform="matrix(1 -1.22503e-16 -1.22465e-16 -1.00031 2324.2 772.852)"/><path d="M0 0 109.058 0 109.058 115.789-1.10117e-06 115.789Z" stroke="#815BA9" stroke-width="6.17095" stroke-linejoin="round" stroke-miterlimit="10" fill="#EDF7F9" transform="matrix(1 -1.22503e-16 -1.22465e-16 -1.00031 2215.14 772.852)"/><path d="M0 0 107.711 0 107.711 115.789 3.30352e-06 115.789Z" stroke="#815BA9" stroke-width="6.17095" stroke-linejoin="round" stroke-miterlimit="10" fill="#935FCD" transform="matrix(1 -1.22503e-16 -1.22465e-16 -1.00031 2107.43 772.852)"/><path d="M0 0 107.711 0 107.711 115.789-1.10117e-06 115.789Z" stroke="#815BA9" stroke-width="6.17095" stroke-linejoin="round" stroke-miterlimit="10" fill="#EDF7F9" transform="matrix(1 -1.22503e-16 -1.22465e-16 -1.00031 2324.2 657.026)"/><path d="M0 0 109.058 0 109.058 115.789-1.10117e-06 115.789Z" stroke="#815BA9" stroke-width="6.17095" stroke-linejoin="round" stroke-miterlimit="10" fill="#98CFE0" transform="matrix(1 -1.22503e-16 -1.22465e-16 -1.00031 2215.14 657.026)"/><path d="M0 0 107.711 0 107.711 115.789 3.30352e-06 115.789Z" stroke="#815BA9" stroke-width="6.17095" stroke-linejoin="round" stroke-miterlimit="10" fill="#B59FE0" transform="matrix(1 -1.22503e-16 -1.22465e-16 -1.00031 2107.43 657.026)"/><path d="M0 0 107.711 0 107.711 115.79-1.10117e-06 115.79Z" stroke="#815BA9" stroke-width="6.17095" stroke-linejoin="round" stroke-miterlimit="10" fill="#D2C9F1" transform="matrix(1 -1.22503e-16 -1.22465e-16 -1.00031 2324.2 541.201)"/><path d="M0 0 109.058 0 109.058 115.79-1.10117e-06 115.79Z" stroke="#815BA9" stroke-width="6.17095" stroke-linejoin="round" stroke-miterlimit="10" fill="#BCA3EA" transform="matrix(1 -1.22503e-16 -1.22465e-16 -1.00031 2215.14 541.201)"/><path d="M0 0 107.711 0 107.711 115.79 3.30352e-06 115.79Z" stroke="#815BA9" stroke-width="6.17095" stroke-linejoin="round" stroke-miterlimit="10" fill="#F9F0FF" transform="matrix(1 -1.22503e-16 -1.22465e-16 -1.00031 2107.43 541.201)"/><path d="M2486.11 1503.24 2593.82 1503.24 2593.82 1619.03 2486.11 1619.03Z" stroke="#815BA9" stroke-width="6.17095" stroke-linejoin="round" stroke-miterlimit="10" fill="#D4C5EE" transform="matrix(1 0 0 1.00031 -349.055 -701.229)"/><path d="M2593.82 1503.24 2702.88 1503.24 2702.88 1619.03 2593.82 1619.03Z" stroke="#815BA9" stroke-width="6.17095" stroke-linejoin="round" stroke-miterlimit="10" fill="#CEE8F0" transform="matrix(1 0 0 1.00031 -349.055 -701.229)"/><path d="M2702.88 1503.24 2810.59 1503.24 2810.59 1619.03 2702.88 1619.03Z" stroke="#815BA9" stroke-width="6.17095" stroke-linejoin="round" stroke-miterlimit="10" fill="#5EABC3" transform="matrix(1 0 0 1.00031 -349.055 -701.229)"/><path d="M2486.11 1387.45 2593.82 1387.45 2593.82 1503.24 2486.11 1503.24Z" stroke="#815BA9" stroke-width="6.17095" stroke-linejoin="round" stroke-miterlimit="10" fill="#B6A1E4" transform="matrix(1 0 0 1.00031 -349.055 -701.229)"/><path d="M2593.82 1387.45 2702.88 1387.45 2702.88 1503.24 2593.82 1503.24Z" stroke="#815BA9" stroke-width="6.17095" stroke-linejoin="round" stroke-miterlimit="10" fill="#EDF7F9" transform="matrix(1 0 0 1.00031 -349.055 -701.229)"/><path d="M2702.88 1387.45 2810.59 1387.45 2810.59 1503.24 2702.88 1503.24Z" stroke="#815BA9" stroke-width="6.17095" stroke-linejoin="round" stroke-miterlimit="10" fill="#98CFE0" transform="matrix(1 0 0 1.00031 -349.055 -701.229)"/><path d="M2486.11 1271.66 2593.82 1271.66 2593.82 1387.45 2486.11 1387.45Z" stroke="#815BA9" stroke-width="6.17095" stroke-linejoin="round" stroke-miterlimit="10" fill="#F5ECFF" transform="matrix(1 0 0 1.00031 -349.055 -701.229)"/><path d="M2593.82 1271.66 2702.88 1271.66 2702.88 1387.45 2593.82 1387.45Z" stroke="#815BA9" stroke-width="6.17095" stroke-linejoin="round" stroke-miterlimit="10" fill="#98CFE0" transform="matrix(1 0 0 1.00031 -349.055 -701.229)"/><path d="M2702.88 1271.66 2810.59 1271.66 2810.59 1387.45 2702.88 1387.45Z" stroke="#815BA9" stroke-width="6.17095" stroke-linejoin="round" stroke-miterlimit="10" fill="#CEE8F0" transform="matrix(1 0 0 1.00031 -349.055 -701.229)"/><path d="M2486.11 1155.88 2593.82 1155.88 2593.82 1271.67 2486.11 1271.67Z" stroke="#815BA9" stroke-width="6.17095" stroke-linejoin="round" stroke-miterlimit="10" fill="#8D60CF" transform="matrix(1 0 0 1.00031 -349.055 -701.229)"/><path d="M2593.82 1155.88 2702.88 1155.88 2702.88 1271.67 2593.82 1271.67Z" stroke="#815BA9" stroke-width="6.17095" stroke-linejoin="round" stroke-miterlimit="10" fill="#B198DE" transform="matrix(1 0 0 1.00031 -349.055 -701.229)"/><path d="M2702.88 1155.88 2810.59 1155.88 2810.59 1271.67 2702.88 1271.67Z" stroke="#815BA9" stroke-width="6.17095" stroke-linejoin="round" stroke-miterlimit="10" fill="#EBE2F6" transform="matrix(1 0 0 1.00031 -349.055 -701.229)"/><path d="M0 0 107.711 0 107.711 115.789-1.10117e-06 115.789Z" stroke="#815BA9" stroke-width="6.17095" stroke-linejoin="round" stroke-miterlimit="10" fill="#FAECFF" transform="matrix(-1 0 0 1.00031 2277.08 487.328)"/><path d="M0 0 109.058 0 109.058 115.789-1.10117e-06 115.789Z" stroke="#815BA9" stroke-width="6.17095" stroke-linejoin="round" stroke-miterlimit="10" fill="#B59EE9" transform="matrix(-1 0 0 1.00031 2386.13 487.328)"/><path d="M0 0 107.711 0 107.711 115.789-1.10117e-06 115.789Z" stroke="#815BA9" stroke-width="6.17095" stroke-linejoin="round" stroke-miterlimit="10" fill="#915FCE" transform="matrix(-1 0 0 1.00031 2493.85 487.328)"/><path d="M0 0 107.711 0 107.711 115.79-1.10117e-06 115.79Z" stroke="#815BA9" stroke-width="6.17095" stroke-linejoin="round" stroke-miterlimit="10" fill="#9361CD" transform="matrix(-1 0 0 1.00031 2277.08 603.154)"/><path d="M0 0 109.058 0 109.058 115.79-1.10117e-06 115.79Z" stroke="#815BA9" stroke-width="6.17095" stroke-linejoin="round" stroke-miterlimit="10" fill="#EDF7F9" transform="matrix(-1 0 0 1.00031 2386.13 603.154)"/><path d="M0 0 107.711 0 107.711 115.79-1.10117e-06 115.79Z" stroke="#815BA9" stroke-width="6.17095" stroke-linejoin="round" stroke-miterlimit="10" fill="#98CFE0" transform="matrix(-1 0 0 1.00031 2493.85 603.154)"/><path d="M0 0 107.711 0 107.711 115.789-1.10117e-06 115.789Z" stroke="#815BA9" stroke-width="6.17095" stroke-linejoin="round" stroke-miterlimit="10" fill="#F5ECFF" transform="matrix(-1 0 0 1.00031 2277.08 718.979)"/><path d="M0 0 109.058 0 109.058 115.789-1.10117e-06 115.789Z" stroke="#815BA9" stroke-width="6.17095" stroke-linejoin="round" stroke-miterlimit="10" fill="#98CFE0" transform="matrix(-1 0 0 1.00031 2386.13 718.979)"/><path d="M0 0 107.711 0 107.711 115.789-1.10117e-06 115.789Z" stroke="#815BA9" stroke-width="6.17095" stroke-linejoin="round" stroke-miterlimit="10" fill="#5EABC3" transform="matrix(-1 0 0 1.00031 2493.85 718.979)"/><path d="M0 0 107.711 0 107.711 115.789-1.10117e-06 115.789Z" stroke="#815BA9" stroke-width="6.17095" stroke-linejoin="round" stroke-miterlimit="10" fill="#B3A0E4" transform="matrix(-1 0 0 1.00031 2277.08 834.805)"/><path d="M0 0 109.058 0 109.058 115.789-1.10117e-06 115.789Z" stroke="#815BA9" stroke-width="6.17095" stroke-linejoin="round" stroke-miterlimit="10" fill="#EDF7F9" transform="matrix(-1 0 0 1.00031 2386.13 834.805)"/><path d="M0 0 107.711 0 107.711 115.789-1.10117e-06 115.789Z" stroke="#815BA9" stroke-width="6.17095" stroke-linejoin="round" stroke-miterlimit="10" fill="#CEE8F0" transform="matrix(-1 0 0 1.00031 2493.85 834.805)"/><path d="M2766.16 1217.81 2873.87 1217.81 2873.87 1332.25 2766.16 1332.25Z" stroke="#815BA9" stroke-width="6.17095" stroke-linejoin="round" stroke-miterlimit="10" fill="#F0ECF7" transform="matrix(1 0 0 1.00031 -349.055 -701.229)"/><path d="M2657.1 1217.81 2766.16 1217.81 2766.16 1332.25 2657.1 1332.25Z" stroke="#815BA9" stroke-width="6.17095" stroke-linejoin="round" stroke-miterlimit="10" fill="#B99EE0" transform="matrix(1 0 0 1.00031 -349.055 -701.229)"/><path d="M2549.39 1217.81 2657.1 1217.81 2657.1 1332.25 2549.39 1332.25Z" stroke="#815BA9" stroke-width="6.17095" stroke-linejoin="round" stroke-miterlimit="10" fill="#8F62CA" transform="matrix(1 0 0 1.00031 -349.055 -701.229)"/><path d="M2766.16 1332.25 2873.87 1332.25 2873.87 1448.04 2766.16 1448.04Z" stroke="#815BA9" stroke-width="6.17095" stroke-linejoin="round" stroke-miterlimit="10" fill="#B79FE0" transform="matrix(1 0 0 1.00031 -349.055 -701.229)"/><path d="M2657.1 1332.25 2766.16 1332.25 2766.16 1448.04 2657.1 1448.04Z" stroke="#815BA9" stroke-width="6.17095" stroke-linejoin="round" stroke-miterlimit="10" fill="#9161CA" transform="matrix(1 0 0 1.00031 -349.055 -701.229)"/><path d="M2549.39 1332.25 2657.1 1332.25 2657.1 1448.04 2549.39 1448.04Z" stroke="#815BA9" stroke-width="6.17095" stroke-linejoin="round" stroke-miterlimit="10" fill="#F2EBF9" transform="matrix(1 0 0 1.00031 -349.055 -701.229)"/><path d="M2766.16 1449.39 2873.87 1449.39 2873.87 1563.83 2766.16 1563.83Z" stroke="#815BA9" stroke-width="6.17095" stroke-linejoin="round" stroke-miterlimit="10" fill="#F3EAF9" transform="matrix(1 0 0 1.00031 -349.055 -701.229)"/><path d="M2657.1 1449.39 2766.16 1449.39 2766.16 1563.83 2657.1 1563.83Z" stroke="#815BA9" stroke-width="6.17095" stroke-linejoin="round" stroke-miterlimit="10" fill="#B99EE0" transform="matrix(1 0 0 1.00031 -349.055 -701.229)"/><path d="M2549.39 1449.39 2657.1 1449.39 2657.1 1563.83 2549.39 1563.83Z" stroke="#815BA9" stroke-width="6.17095" stroke-linejoin="round" stroke-miterlimit="10" fill="#B99EE0" transform="matrix(1 0 0 1.00031 -349.055 -701.229)"/><path d="M2766.16 1565.18 2873.87 1565.18 2873.87 1680.97 2766.16 1680.97Z" stroke="#815BA9" stroke-width="6.17095" stroke-linejoin="round" stroke-miterlimit="10" fill="#9061CA" transform="matrix(1 0 0 1.00031 -349.055 -701.229)"/><path d="M2657.1 1565.18 2766.16 1565.18 2766.16 1680.97 2657.1 1680.97Z" stroke="#815BA9" stroke-width="6.17095" stroke-linejoin="round" stroke-miterlimit="10" fill="#F2EBF9" transform="matrix(1 0 0 1.00031 -349.055 -701.229)"/><path d="M2549.39 1565.18 2657.1 1565.18 2657.1 1680.97 2549.39 1680.97Z" stroke="#815BA9" stroke-width="6.17095" stroke-linejoin="round" stroke-miterlimit="10" fill="#D6C5EA" transform="matrix(1 0 0 1.00031 -349.055 -701.229)"/><path d="M2850.08 1092.72 2892.08 1135.22C2892.99 1136.13 2892.97 1137.6 2892.07 1138.49 2891.16 1139.39 2889.69 1139.38 2888.8 1138.47L2846.79 1095.97C2845.89 1095.06 2845.9 1093.6 2846.81 1092.7 2847.72 1091.8 2849.17 1091.81 2850.08 1092.72ZM2839.6 1111.75 2826.74 1072.4 2865.94 1085.72ZM2899.27 1119.45 2912.13 1158.79 2872.94 1145.47Z" transform="matrix(1 0 0 1.00031 -349.055 -701.229)"/><text font-family="Arial,Arial_MSFontService,sans-serif" font-weight="400" font-size="55" transform="matrix(1.34639 0 0 1.34681 2622.72 403)">B </text><text font-family="Arial,Arial_MSFontService,sans-serif" font-weight="400" font-size="55" transform="matrix(1.34639 0 0 1.34681 2692.73 403)">(</text><text font-family="Arial,Arial_MSFontService,sans-serif" font-weight="400" font-size="55" transform="matrix(1.34639 0 0 1.34681 2716.97 403)">batch size</text><text font-family="Arial,Arial_MSFontService,sans-serif" font-weight="400" font-size="55" transform="matrix(1.34639 0 0 1.34681 3050.87 403)">)</text><path d="M2919.27 1239.24 2919.27 1652.84C2919.27 1654.12 2918.23 1655.16 2916.95 1655.16 2915.67 1655.16 2914.64 1654.12 2914.64 1652.84L2914.64 1239.24C2914.64 1237.96 2915.67 1236.93 2916.95 1236.93 2918.23 1236.93 2919.27 1237.96 2919.27 1239.24ZM2898.44 1245.41 2916.95 1208.38 2935.47 1245.41ZM2935.47 1646.67 2916.95 1683.7 2898.44 1646.67Z" transform="matrix(1 0 0 1.00031 -349.055 -701.229)"/><path d="M30.8547-2.31405 282.68-2.31366C283.958-2.31366 284.993-1.2776 284.993 0.000441671 284.993 1.27849 283.958 2.31455 282.68 2.31455L30.8547 2.31416C29.5767 2.31415 28.5406 1.27809 28.5406 4.4231e-05 28.5406-1.278 29.5767-2.31407 30.8547-2.31405ZM37.0257 18.5129 0 0 37.0257-18.5129ZM276.508-18.5124 313.534 0.000485901 276.508 18.5133Z" transform="matrix(-1 0 0 1.00031 2524.64 1034.13)"/><text font-family="Times New Roman,Times New Roman_MSFontService,sans-serif" font-style="italic" font-weight="400" font-size="73" transform="matrix(1.34639 0 0 1.34681 2263.02 316)">y</text><text font-family="Times New Roman,Times New Roman_MSFontService,sans-serif" font-style="italic" font-weight="400" font-size="49" transform="matrix(1.34639 0 0 1.34681 2306.99 339)">k</text><text font-family="Arial,Arial_MSFontService,sans-serif" font-weight="400" font-size="55" transform="matrix(1.34639 0 0 1.34681 2636.85 734)">L</text><text font-family="Arial,Arial_MSFontService,sans-serif" font-weight="400" font-size="55" transform="matrix(1.34639 0 0 1.34681 2695.82 734)">(</text><text font-family="Arial,Arial_MSFontService,sans-serif" font-weight="400" font-size="55" transform="matrix(1.34639 0 0 1.34681 2720.05 734)">sequence </text><text font-family="Arial,Arial_MSFontService,sans-serif" font-weight="400" font-size="55" transform="matrix(1.34639 0 0 1.34681 2725.71 823)">length</text><text font-family="Arial,Arial_MSFontService,sans-serif" font-weight="400" font-size="55" transform="matrix(1.34639 0 0 1.34681 2927.67 823)">)</text><path d="M0 0 109.057 0 109.057 114.443 2.20235e-06 114.443Z" stroke="#565656" stroke-width="6.17095" stroke-linejoin="round" stroke-miterlimit="10" fill="#EDF7F9" transform="matrix(1 -1.22503e-16 -1.22465e-16 -1.00031 1765.45 1896.09)"/><path d="M0 0 107.711 0 107.711 114.443-1.10117e-06 114.443Z" stroke="#565656" stroke-width="6.17095" stroke-linejoin="round" stroke-miterlimit="10" fill="#CEE8F0" transform="matrix(1 -1.22503e-16 -1.22465e-16 -1.00031 1657.74 1896.09)"/><path d="M0 0 109.058 0 109.058 114.443-1.10117e-06 114.443Z" stroke="#565656" stroke-width="6.17095" stroke-linejoin="round" stroke-miterlimit="10" fill="#E3E3E3" transform="matrix(1 -1.22503e-16 -1.22465e-16 -1.00031 1548.68 1896.09)"/><path d="M0 0 109.057 0 109.057 115.789 2.20235e-06 115.789Z" stroke="#565656" stroke-width="6.17095" stroke-linejoin="round" stroke-miterlimit="10" fill="#5EABC3" transform="matrix(1 -1.22503e-16 -1.22465e-16 -1.00031 1765.45 1781.61)"/><path d="M0 0 107.711 0 107.711 115.789-1.10117e-06 115.789Z" stroke="#565656" stroke-width="6.17095" stroke-linejoin="round" stroke-miterlimit="10" fill="#EDF7F9" transform="matrix(1 -1.22503e-16 -1.22465e-16 -1.00031 1657.74 1781.61)"/><path d="M0 0 109.058 0 109.058 115.789-1.10117e-06 115.789Z" stroke="#565656" stroke-width="6.17095" stroke-linejoin="round" stroke-miterlimit="10" fill="#959595" transform="matrix(1 -1.22503e-16 -1.22465e-16 -1.00031 1548.68 1781.61)"/><path d="M0 0 109.057 0 109.057 114.443 2.20235e-06 114.443Z" stroke="#565656" stroke-width="6.17095" stroke-linejoin="round" stroke-miterlimit="10" fill="#EDF7F9" transform="matrix(1 -1.22503e-16 -1.22465e-16 -1.00031 1765.45 1664.44)"/><path d="M0 0 107.711 0 107.711 114.443-1.10117e-06 114.443Z" stroke="#565656" stroke-width="6.17095" stroke-linejoin="round" stroke-miterlimit="10" fill="#98CFE0" transform="matrix(1 -1.22503e-16 -1.22465e-16 -1.00031 1657.74 1664.44)"/><path d="M0 0 109.058 0 109.058 114.443-1.10117e-06 114.443Z" stroke="#565656" stroke-width="6.17095" stroke-linejoin="round" stroke-miterlimit="10" fill="#6D6D6D" transform="matrix(1 -1.22503e-16 -1.22465e-16 -1.00031 1548.68 1664.44)"/><path d="M0 0 109.057 0 109.057 115.79 2.20235e-06 115.79Z" stroke="#565656" stroke-width="6.17095" stroke-linejoin="round" stroke-miterlimit="10" fill="#6D6D6D" transform="matrix(1 -1.22503e-16 -1.22465e-16 -1.00031 1765.45 1548.61)"/><path d="M0 0 107.711 0 107.711 115.79-1.10117e-06 115.79Z" stroke="#565656" stroke-width="6.17095" stroke-linejoin="round" stroke-miterlimit="10" fill="#959595" transform="matrix(1 -1.22503e-16 -1.22465e-16 -1.00031 1657.74 1548.61)"/><path d="M0 0 109.058 0 109.058 115.79-1.10117e-06 115.79Z" stroke="#565656" stroke-width="6.17095" stroke-linejoin="round" stroke-miterlimit="10" fill="#E3E3E3" transform="matrix(1 -1.22503e-16 -1.22465e-16 -1.00031 1548.68 1548.61)"/><path d="M1927.36 2510.34 2036.41 2510.34 2036.41 2626.13 1927.36 2626.13Z" stroke="#565656" stroke-width="6.17095" stroke-linejoin="round" stroke-miterlimit="10" fill="#E3E3E3" transform="matrix(1 0 0 1.00031 -349.055 -701.229)"/><path d="M2036.41 2510.34 2144.12 2510.34 2144.12 2626.13 2036.41 2626.13Z" stroke="#565656" stroke-width="6.17095" stroke-linejoin="round" stroke-miterlimit="10" fill="#CEE8F0" transform="matrix(1 0 0 1.00031 -349.055 -701.229)"/><path d="M2144.12 2510.34 2253.18 2510.34 2253.18 2626.13 2144.12 2626.13Z" stroke="#565656" stroke-width="6.17095" stroke-linejoin="round" stroke-miterlimit="10" fill="#5EABC3" transform="matrix(1 0 0 1.00031 -349.055 -701.229)"/><path d="M1927.36 2395.9 2036.41 2395.9 2036.41 2510.34 1927.36 2510.34Z" stroke="#565656" stroke-width="6.17095" stroke-linejoin="round" stroke-miterlimit="10" fill="#959595" transform="matrix(1 0 0 1.00031 -349.055 -701.229)"/><path d="M2036.41 2395.9 2144.12 2395.9 2144.12 2510.34 2036.41 2510.34Z" stroke="#565656" stroke-width="6.17095" stroke-linejoin="round" stroke-miterlimit="10" fill="#EDF7F9" transform="matrix(1 0 0 1.00031 -349.055 -701.229)"/><path d="M2144.12 2395.9 2253.18 2395.9 2253.18 2510.34 2144.12 2510.34Z" stroke="#565656" stroke-width="6.17095" stroke-linejoin="round" stroke-miterlimit="10" fill="#98CFE0" transform="matrix(1 0 0 1.00031 -349.055 -701.229)"/><path d="M1927.36 2278.76 2036.41 2278.76 2036.41 2394.55 1927.36 2394.55Z" stroke="#565656" stroke-width="6.17095" stroke-linejoin="round" stroke-miterlimit="10" fill="#E3E3E3" transform="matrix(1 0 0 1.00031 -349.055 -701.229)"/><path d="M2036.41 2278.76 2144.12 2278.76 2144.12 2394.55 2036.41 2394.55Z" stroke="#565656" stroke-width="6.17095" stroke-linejoin="round" stroke-miterlimit="10" fill="#98CFE0" transform="matrix(1 0 0 1.00031 -349.055 -701.229)"/><path d="M2144.12 2278.76 2253.18 2278.76 2253.18 2394.55 2144.12 2394.55Z" stroke="#565656" stroke-width="6.17095" stroke-linejoin="round" stroke-miterlimit="10" fill="#CEE8F0" transform="matrix(1 0 0 1.00031 -349.055 -701.229)"/><path d="M1927.36 2162.97 2036.41 2162.97 2036.41 2278.76 1927.36 2278.76Z" stroke="#565656" stroke-width="6.17095" stroke-linejoin="round" stroke-miterlimit="10" fill="#6D6D6D" transform="matrix(1 0 0 1.00031 -349.055 -701.229)"/><path d="M2036.41 2162.97 2144.12 2162.97 2144.12 2278.76 2036.41 2278.76Z" stroke="#565656" stroke-width="6.17095" stroke-linejoin="round" stroke-miterlimit="10" fill="#E3E3E3" transform="matrix(1 0 0 1.00031 -349.055 -701.229)"/><path d="M2144.12 2162.97 2253.18 2162.97 2253.18 2278.76 2144.12 2278.76Z" stroke="#565656" stroke-width="6.17095" stroke-linejoin="round" stroke-miterlimit="10" fill="#959595" transform="matrix(1 0 0 1.00031 -349.055 -701.229)"/><path d="M0 0 107.711 0 107.711 115.789-1.10117e-06 115.789Z" stroke="#565656" stroke-width="6.17095" stroke-linejoin="round" stroke-miterlimit="10" fill="#E3E3E3" transform="matrix(-1 0 0 1.00031 1718.33 1496.09)"/><path d="M0 0 109.058 0 109.058 115.789-1.10117e-06 115.789Z" stroke="#565656" stroke-width="6.17095" stroke-linejoin="round" stroke-miterlimit="10" fill="#6D6D6D" transform="matrix(-1 0 0 1.00031 1827.38 1496.09)"/><path d="M0 0 107.711 0 107.711 115.789 3.30352e-06 115.789Z" stroke="#565656" stroke-width="6.17095" stroke-linejoin="round" stroke-miterlimit="10" fill="#959595" transform="matrix(-1 0 0 1.00031 1935.09 1496.09)"/><path d="M0 0 107.711 0 107.711 114.443-1.10117e-06 114.443Z" stroke="#565656" stroke-width="6.17095" stroke-linejoin="round" stroke-miterlimit="10" fill="#686868" transform="matrix(-1 0 0 1.00031 1718.33 1611.91)"/><path d="M0 0 109.058 0 109.058 114.443-1.10117e-06 114.443Z" stroke="#565656" stroke-width="6.17095" stroke-linejoin="round" stroke-miterlimit="10" fill="#EDF7F9" transform="matrix(-1 0 0 1.00031 1827.38 1611.91)"/><path d="M0 0 107.711 0 107.711 114.443 3.30352e-06 114.443Z" stroke="#565656" stroke-width="6.17095" stroke-linejoin="round" stroke-miterlimit="10" fill="#98CFE0" transform="matrix(-1 0 0 1.00031 1935.09 1611.91)"/><path d="M0 0 107.711 0 107.711 115.789-1.10117e-06 115.789Z" stroke="#565656" stroke-width="6.17095" stroke-linejoin="round" stroke-miterlimit="10" fill="#ABABAB" transform="matrix(-1 0 0 1.00031 1718.33 1727.74)"/><path d="M0 0 109.058 0 109.058 115.789-1.10117e-06 115.789Z" stroke="#565656" stroke-width="6.17095" stroke-linejoin="round" stroke-miterlimit="10" fill="#98CFE0" transform="matrix(-1 0 0 1.00031 1827.38 1727.74)"/><path d="M0 0 107.711 0 107.711 115.789 3.30352e-06 115.789Z" stroke="#565656" stroke-width="6.17095" stroke-linejoin="round" stroke-miterlimit="10" fill="#5EABC3" transform="matrix(-1 0 0 1.00031 1935.09 1727.74)"/><path d="M0 0 107.711 0 107.711 115.789-1.10117e-06 115.789Z" stroke="#565656" stroke-width="6.17095" stroke-linejoin="round" stroke-miterlimit="10" fill="#6C6C6C" transform="matrix(-1 0 0 1.00031 1718.33 1843.56)"/><path d="M0 0 109.058 0 109.058 115.789-1.10117e-06 115.789Z" stroke="#565656" stroke-width="6.17095" stroke-linejoin="round" stroke-miterlimit="10" fill="#EDF7F9" transform="matrix(-1 0 0 1.00031 1827.38 1843.56)"/><path d="M0 0 107.711 0 107.711 115.789 3.30352e-06 115.789Z" stroke="#565656" stroke-width="6.17095" stroke-linejoin="round" stroke-miterlimit="10" fill="#CEE8F0" transform="matrix(-1 0 0 1.00031 1935.09 1843.56)"/><path d="M2207.41 2224.91 2316.46 2224.91 2316.46 2340.7 2207.41 2340.7Z" stroke="#565656" stroke-width="6.17095" stroke-linejoin="round" stroke-miterlimit="10" fill="#6D6D6D" transform="matrix(1 0 0 1.00031 -349.055 -701.229)"/><path d="M2099.69 2224.91 2207.4 2224.91 2207.4 2340.7 2099.69 2340.7Z" stroke="#565656" stroke-width="6.17095" stroke-linejoin="round" stroke-miterlimit="10" fill="#DEDEDE" transform="matrix(1 0 0 1.00031 -349.055 -701.229)"/><path d="M1990.64 2224.91 2099.69 2224.91 2099.69 2340.7 1990.64 2340.7Z" stroke="#565656" stroke-width="6.17095" stroke-linejoin="round" stroke-miterlimit="10" fill="#DEDEDE" transform="matrix(1 0 0 1.00031 -349.055 -701.229)"/><path d="M2207.41 2340.7 2316.46 2340.7 2316.46 2456.49 2207.41 2456.49Z" stroke="#565656" stroke-width="6.17095" stroke-linejoin="round" stroke-miterlimit="10" fill="#959595" transform="matrix(1 0 0 1.00031 -349.055 -701.229)"/><path d="M2099.69 2340.7 2207.4 2340.7 2207.4 2456.49 2099.69 2456.49Z" stroke="#565656" stroke-width="6.17095" stroke-linejoin="round" stroke-miterlimit="10" fill="#6D6D6D" transform="matrix(1 0 0 1.00031 -349.055 -701.229)"/><path d="M1990.64 2340.7 2099.69 2340.7 2099.69 2456.49 1990.64 2456.49Z" stroke="#565656" stroke-width="6.17095" stroke-linejoin="round" stroke-miterlimit="10" fill="#DEDEDE" transform="matrix(1 0 0 1.00031 -349.055 -701.229)"/><path d="M2207.41 2456.49 2316.46 2456.49 2316.46 2572.28 2207.41 2572.28Z" stroke="#565656" stroke-width="6.17095" stroke-linejoin="round" stroke-miterlimit="10" fill="#DEDEDE" transform="matrix(1 0 0 1.00031 -349.055 -701.229)"/><path d="M2099.69 2456.49 2207.4 2456.49 2207.4 2572.28 2099.69 2572.28Z" stroke="#565656" stroke-width="6.17095" stroke-linejoin="round" stroke-miterlimit="10" fill="#959595" transform="matrix(1 0 0 1.00031 -349.055 -701.229)"/><path d="M1990.64 2456.49 2099.69 2456.49 2099.69 2572.28 1990.64 2572.28Z" stroke="#565656" stroke-width="6.17095" stroke-linejoin="round" stroke-miterlimit="10" fill="#6D6D6D" transform="matrix(1 0 0 1.00031 -349.055 -701.229)"/><path d="M2207.41 2572.28 2316.46 2572.28 2316.46 2688.07 2207.41 2688.07Z" stroke="#565656" stroke-width="6.17095" stroke-linejoin="round" stroke-miterlimit="10" fill="#6D6D6D" transform="matrix(1 0 0 1.00031 -349.055 -701.229)"/><path d="M2099.69 2572.28 2207.4 2572.28 2207.4 2688.07 2099.69 2688.07Z" stroke="#565656" stroke-width="6.17095" stroke-linejoin="round" stroke-miterlimit="10" fill="#ABABAB" transform="matrix(1 0 0 1.00031 -349.055 -701.229)"/><path d="M1990.64 2572.28 2099.69 2572.28 2099.69 2688.07 1990.64 2688.07Z" stroke="#565656" stroke-width="6.17095" stroke-linejoin="round" stroke-miterlimit="10" fill="#DEDEDE" transform="matrix(1 0 0 1.00031 -349.055 -701.229)"/><path d="M0 0 107.711 0 107.711 115.789 3.30352e-06 115.789Z" stroke="#184489" stroke-width="6.17095" stroke-linejoin="round" stroke-miterlimit="10" fill="#F0F4FB" transform="matrix(-1 0 0 1.00031 380.015 1452.99)"/><path d="M0 0 109.058 0 109.058 115.789-1.10117e-06 115.789Z" stroke="#184489" stroke-width="6.17095" stroke-linejoin="round" stroke-miterlimit="10" fill="#3776C9" transform="matrix(-1 0 0 1.00031 489.072 1452.99)"/><path d="M0 0 107.711 0 107.711 115.789-1.10117e-06 115.789Z" stroke="#184489" stroke-width="6.17095" stroke-linejoin="round" stroke-miterlimit="10" fill="#98B8E3" transform="matrix(-1 0 0 1.00031 596.783 1452.99)"/><path d="M0 0 107.711 0 107.711 115.789 3.30352e-06 115.789Z" stroke="#184489" stroke-width="6.17095" stroke-linejoin="round" stroke-miterlimit="10" fill="#3776C9" transform="matrix(-1 0 0 1.00031 380.015 1568.81)"/><path d="M0 0 109.058 0 109.058 115.789-1.10117e-06 115.789Z" stroke="#184489" stroke-width="6.17095" stroke-linejoin="round" stroke-miterlimit="10" fill="#CDDDF1" transform="matrix(-1 0 0 1.00031 489.072 1568.81)"/><path d="M0 0 107.711 0 107.711 115.789-1.10117e-06 115.789Z" stroke="#184489" stroke-width="6.17095" stroke-linejoin="round" stroke-miterlimit="10" fill="#3776C9" transform="matrix(-1 0 0 1.00031 596.783 1568.81)"/><path d="M0 0 107.711 0 107.711 115.79 3.30352e-06 115.79Z" stroke="#184489" stroke-width="6.17095" stroke-linejoin="round" stroke-miterlimit="10" fill="#CDDDF1" transform="matrix(-1 0 0 1.00031 380.015 1684.64)"/><path d="M0 0 109.058 0 109.058 115.79-1.10117e-06 115.79Z" stroke="#184489" stroke-width="6.17095" stroke-linejoin="round" stroke-miterlimit="10" fill="#98B8E3" transform="matrix(-1 0 0 1.00031 489.072 1684.64)"/><path d="M0 0 107.711 0 107.711 115.79-1.10117e-06 115.79Z" stroke="#184489" stroke-width="6.17095" stroke-linejoin="round" stroke-miterlimit="10" fill="#F0F4FB" transform="matrix(-1 0 0 1.00031 596.783 1684.64)"/><path d="M0 0 107.711 0 107.711 115.789 3.30352e-06 115.789Z" stroke="#184489" stroke-width="6.17095" stroke-linejoin="round" stroke-miterlimit="10" fill="#3776C9" transform="matrix(-1 0 0 1.00031 380.015 1800.47)"/><path d="M0 0 109.058 0 109.058 115.789-1.10117e-06 115.789Z" stroke="#184489" stroke-width="6.17095" stroke-linejoin="round" stroke-miterlimit="10" fill="#FFFFFF" transform="matrix(-1 0 0 1.00031 489.072 1800.47)"/><path d="M0 0 107.711 0 107.711 115.789-1.10117e-06 115.789Z" stroke="#184489" stroke-width="6.17095" stroke-linejoin="round" stroke-miterlimit="10" fill="#CDDDF1" transform="matrix(-1 0 0 1.00031 596.783 1800.47)"/><path d="M0 0 109.058 0 109.058 115.789-1.10117e-06 115.789Z" stroke="#184489" stroke-width="6.17095" stroke-linejoin="round" stroke-miterlimit="10" fill="#F0F4FB" transform="matrix(1 0 0 -1.00031 2421.14 1900.13)"/><path d="M0 0 107.711 0 107.711 115.789 3.30352e-06 115.789Z" stroke="#184489" stroke-width="6.17095" stroke-linejoin="round" stroke-miterlimit="10" fill="#3776C9" transform="matrix(1 0 0 -1.00031 2313.43 1900.13)"/><path d="M0 0 109.058 0 109.058 115.789-1.10117e-06 115.789Z" stroke="#184489" stroke-width="6.17095" stroke-linejoin="round" stroke-miterlimit="10" fill="#98B8E3" transform="matrix(1 0 0 -1.00031 2204.37 1900.13)"/><path d="M0 0 109.058 0 109.058 115.789-1.10117e-06 115.789Z" stroke="#184489" stroke-width="6.17095" stroke-linejoin="round" stroke-miterlimit="10" fill="#3776C9" transform="matrix(1 0 0 -1.00031 2421.14 1784.3)"/><path d="M0 0 107.711 0 107.711 115.789 3.30352e-06 115.789Z" stroke="#184489" stroke-width="6.17095" stroke-linejoin="round" stroke-miterlimit="10" fill="#CDDDF1" transform="matrix(1 0 0 -1.00031 2313.43 1784.3)"/><path d="M0 0 109.058 0 109.058 115.789-1.10117e-06 115.789Z" stroke="#184489" stroke-width="6.17095" stroke-linejoin="round" stroke-miterlimit="10" fill="#3776C9" transform="matrix(1 0 0 -1.00031 2204.37 1784.3)"/><path d="M0 0 109.058 0 109.058 115.79-1.10117e-06 115.79Z" stroke="#184489" stroke-width="6.17095" stroke-linejoin="round" stroke-miterlimit="10" fill="#CDDDF1" transform="matrix(1 0 0 -1.00031 2421.14 1668.48)"/><path d="M0 0 107.711 0 107.711 115.79 3.30352e-06 115.79Z" stroke="#184489" stroke-width="6.17095" stroke-linejoin="round" stroke-miterlimit="10" fill="#98B8E3" transform="matrix(1 0 0 -1.00031 2313.43 1668.48)"/><path d="M0 0 109.058 0 109.058 115.79-1.10117e-06 115.79Z" stroke="#184489" stroke-width="6.17095" stroke-linejoin="round" stroke-miterlimit="10" fill="#F0F4FB" transform="matrix(1 0 0 -1.00031 2204.37 1668.48)"/><path d="M0 0 109.058 0 109.058 115.789-1.10117e-06 115.789Z" stroke="#184489" stroke-width="6.17095" stroke-linejoin="round" stroke-miterlimit="10" fill="#3776C9" transform="matrix(1 0 0 -1.00031 2421.14 1552.65)"/><path d="M0 0 107.711 0 107.711 115.789 3.30352e-06 115.789Z" stroke="#184489" stroke-width="6.17095" stroke-linejoin="round" stroke-miterlimit="10" fill="#FFFFFF" transform="matrix(1 0 0 -1.00031 2313.43 1552.65)"/><path d="M0 0 109.058 0 109.058 115.789-1.10117e-06 115.789Z" stroke="#184489" stroke-width="6.17095" stroke-linejoin="round" stroke-miterlimit="10" fill="#CDDDF1" transform="matrix(1 0 0 -1.00031 2204.37 1552.65)"/><path d="M0 0 109.057 0 109.057 115.789 2.20235e-06 115.789Z" stroke="#184489" stroke-width="6.17095" stroke-linejoin="round" stroke-miterlimit="10" fill="#F0F4FB" transform="matrix(1 0 0 -1.00031 2637.91 1900.13)"/><path d="M0 0 107.711 0 107.711 115.789-1.10117e-06 115.789Z" stroke="#184489" stroke-width="6.17095" stroke-linejoin="round" stroke-miterlimit="10" fill="#3776C9" transform="matrix(1 0 0 -1.00031 2530.2 1900.13)"/><path d="M0 0 109.057 0 109.057 115.789 2.20235e-06 115.789Z" stroke="#184489" stroke-width="6.17095" stroke-linejoin="round" stroke-miterlimit="10" fill="#3776C9" transform="matrix(1 0 0 -1.00031 2637.91 1784.3)"/><path d="M0 0 107.711 0 107.711 115.789-1.10117e-06 115.789Z" stroke="#184489" stroke-width="6.17095" stroke-linejoin="round" stroke-miterlimit="10" fill="#CDDDF1" transform="matrix(1 0 0 -1.00031 2530.2 1784.3)"/><path d="M0 0 109.057 0 109.057 115.79 2.20235e-06 115.79Z" stroke="#184489" stroke-width="6.17095" stroke-linejoin="round" stroke-miterlimit="10" fill="#CDDDF1" transform="matrix(1 0 0 -1.00031 2637.91 1668.48)"/><path d="M0 0 107.711 0 107.711 115.79-1.10117e-06 115.79Z" stroke="#184489" stroke-width="6.17095" stroke-linejoin="round" stroke-miterlimit="10" fill="#98B8E3" transform="matrix(1 0 0 -1.00031 2530.2 1668.48)"/><path d="M0 0 109.057 0 109.057 115.789 2.20235e-06 115.789Z" stroke="#184489" stroke-width="6.17095" stroke-linejoin="round" stroke-miterlimit="10" fill="#3776C9" transform="matrix(1 0 0 -1.00031 2637.91 1552.65)"/><path d="M0 0 107.711 0 107.711 115.789-1.10117e-06 115.789Z" stroke="#184489" stroke-width="6.17095" stroke-linejoin="round" stroke-miterlimit="10" fill="#FFFFFF" transform="matrix(1 0 0 -1.00031 2530.2 1552.65)"/><path d="M2802.51 2515.73 2910.22 2515.73 2910.22 2631.52 2802.51 2631.52Z" stroke="#184489" stroke-width="6.17095" stroke-linejoin="round" stroke-miterlimit="10" fill="#F0F4FB" transform="matrix(1 0 0 1.00031 -349.055 -701.229)"/><path d="M2910.22 2515.73 3019.28 2515.73 3019.28 2631.52 2910.22 2631.52Z" stroke="#184489" stroke-width="6.17095" stroke-linejoin="round" stroke-miterlimit="10" fill="#3776C9" transform="matrix(1 0 0 1.00031 -349.055 -701.229)"/><path d="M3019.28 2515.73 3126.99 2515.73 3126.99 2631.52 3019.28 2631.52Z" stroke="#184489" stroke-width="6.17095" stroke-linejoin="round" stroke-miterlimit="10" fill="#98B8E3" transform="matrix(1 0 0 1.00031 -349.055 -701.229)"/><path d="M2802.51 2399.94 2910.22 2399.94 2910.22 2515.73 2802.51 2515.73Z" stroke="#184489" stroke-width="6.17095" stroke-linejoin="round" stroke-miterlimit="10" fill="#3776C9" transform="matrix(1 0 0 1.00031 -349.055 -701.229)"/><path d="M2910.22 2399.94 3019.28 2399.94 3019.28 2515.73 2910.22 2515.73Z" stroke="#184489" stroke-width="6.17095" stroke-linejoin="round" stroke-miterlimit="10" fill="#CDDDF1" transform="matrix(1 0 0 1.00031 -349.055 -701.229)"/><path d="M3019.28 2399.94 3126.99 2399.94 3126.99 2515.73 3019.28 2515.73Z" stroke="#184489" stroke-width="6.17095" stroke-linejoin="round" stroke-miterlimit="10" fill="#3776C9" transform="matrix(1 0 0 1.00031 -349.055 -701.229)"/><path d="M2802.51 2284.15 2910.22 2284.15 2910.22 2399.94 2802.51 2399.94Z" stroke="#184489" stroke-width="6.17095" stroke-linejoin="round" stroke-miterlimit="10" fill="#CDDDF1" transform="matrix(1 0 0 1.00031 -349.055 -701.229)"/><path d="M2910.22 2284.15 3019.28 2284.15 3019.28 2399.94 2910.22 2399.94Z" stroke="#184489" stroke-width="6.17095" stroke-linejoin="round" stroke-miterlimit="10" fill="#98B8E3" transform="matrix(1 0 0 1.00031 -349.055 -701.229)"/><path d="M3019.28 2284.15 3126.99 2284.15 3126.99 2399.94 3019.28 2399.94Z" stroke="#184489" stroke-width="6.17095" stroke-linejoin="round" stroke-miterlimit="10" fill="#F0F4FB" transform="matrix(1 0 0 1.00031 -349.055 -701.229)"/><path d="M2802.51 2168.36 2910.22 2168.36 2910.22 2284.15 2802.51 2284.15Z" stroke="#184489" stroke-width="6.17095" stroke-linejoin="round" stroke-miterlimit="10" fill="#98B8E3" transform="matrix(1 0 0 1.00031 -349.055 -701.229)"/><path d="M2910.22 2168.36 3019.28 2168.36 3019.28 2284.15 2910.22 2284.15Z" stroke="#184489" stroke-width="6.17095" stroke-linejoin="round" stroke-miterlimit="10" fill="#FFFFFF" transform="matrix(1 0 0 1.00031 -349.055 -701.229)"/><path d="M3019.28 2168.36 3126.99 2168.36 3126.99 2284.15 3019.28 2284.15Z" stroke="#184489" stroke-width="6.17095" stroke-linejoin="round" stroke-miterlimit="10" fill="#CDDDF1" transform="matrix(1 0 0 1.00031 -349.055 -701.229)"/><path d="M2585.74 2515.73 2693.45 2515.73 2693.45 2631.52 2585.74 2631.52Z" stroke="#184489" stroke-width="6.17095" stroke-linejoin="round" stroke-miterlimit="10" fill="#3776C9" transform="matrix(1 0 0 1.00031 -349.055 -701.229)"/><path d="M2693.45 2515.73 2802.51 2515.73 2802.51 2631.52 2693.45 2631.52Z" stroke="#184489" stroke-width="6.17095" stroke-linejoin="round" stroke-miterlimit="10" fill="#98B8E3" transform="matrix(1 0 0 1.00031 -349.055 -701.229)"/><path d="M2585.74 2399.94 2693.45 2399.94 2693.45 2515.73 2585.74 2515.73Z" stroke="#184489" stroke-width="6.17095" stroke-linejoin="round" stroke-miterlimit="10" fill="#CDDDF1" transform="matrix(1 0 0 1.00031 -349.055 -701.229)"/><path d="M2693.45 2399.94 2802.51 2399.94 2802.51 2515.73 2693.45 2515.73Z" stroke="#184489" stroke-width="6.17095" stroke-linejoin="round" stroke-miterlimit="10" fill="#3776C9" transform="matrix(1 0 0 1.00031 -349.055 -701.229)"/><path d="M2585.74 2284.15 2693.45 2284.15 2693.45 2399.94 2585.74 2399.94Z" stroke="#184489" stroke-width="6.17095" stroke-linejoin="round" stroke-miterlimit="10" fill="#98B8E3" transform="matrix(1 0 0 1.00031 -349.055 -701.229)"/><path d="M2693.45 2284.15 2802.51 2284.15 2802.51 2399.94 2693.45 2399.94Z" stroke="#184489" stroke-width="6.17095" stroke-linejoin="round" stroke-miterlimit="10" fill="#F0F4FB" transform="matrix(1 0 0 1.00031 -349.055 -701.229)"/><path d="M2585.74 2168.36 2693.45 2168.36 2693.45 2284.15 2585.74 2284.15Z" stroke="#184489" stroke-width="6.17095" stroke-linejoin="round" stroke-miterlimit="10" fill="#FFFFFF" transform="matrix(1 0 0 1.00031 -349.055 -701.229)"/><path d="M2693.45 2168.36 2802.51 2168.36 2802.51 2284.15 2693.45 2284.15Z" stroke="#184489" stroke-width="6.17095" stroke-linejoin="round" stroke-miterlimit="10" fill="#CDDDF1" transform="matrix(1 0 0 1.00031 -349.055 -701.229)"/><path d="M2832.13 2203.37 2941.19 2203.37 2941.19 2319.16 2832.13 2319.16Z" stroke="#184489" stroke-width="6.17095" stroke-linejoin="round" stroke-miterlimit="10" fill="#F0F4FB" transform="matrix(1 0 0 1.00031 -349.055 -701.229)"/><path d="M2724.42 2203.37 2832.13 2203.37 2832.13 2319.16 2724.42 2319.16Z" stroke="#184489" stroke-width="6.17095" stroke-linejoin="round" stroke-miterlimit="10" fill="#3776C9" transform="matrix(1 0 0 1.00031 -349.055 -701.229)"/><path d="M2615.36 2203.37 2724.42 2203.37 2724.42 2319.16 2615.36 2319.16Z" stroke="#184489" stroke-width="6.17095" stroke-linejoin="round" stroke-miterlimit="10" fill="#98B8E3" transform="matrix(1 0 0 1.00031 -349.055 -701.229)"/><path d="M2832.13 2319.16 2941.19 2319.16 2941.19 2434.94 2832.13 2434.94Z" stroke="#184489" stroke-width="6.17095" stroke-linejoin="round" stroke-miterlimit="10" fill="#3776C9" transform="matrix(1 0 0 1.00031 -349.055 -701.229)"/><path d="M2724.42 2319.16 2832.13 2319.16 2832.13 2434.94 2724.42 2434.94Z" stroke="#184489" stroke-width="6.17095" stroke-linejoin="round" stroke-miterlimit="10" fill="#CDDDF1" transform="matrix(1 0 0 1.00031 -349.055 -701.229)"/><path d="M2615.36 2319.16 2724.42 2319.16 2724.42 2434.94 2615.36 2434.94Z" stroke="#184489" stroke-width="6.17095" stroke-linejoin="round" stroke-miterlimit="10" fill="#3776C9" transform="matrix(1 0 0 1.00031 -349.055 -701.229)"/><path d="M2832.13 2434.94 2941.19 2434.94 2941.19 2550.73 2832.13 2550.73Z" stroke="#184489" stroke-width="6.17095" stroke-linejoin="round" stroke-miterlimit="10" fill="#CDDDF1" transform="matrix(1 0 0 1.00031 -349.055 -701.229)"/><path d="M2724.42 2434.94 2832.13 2434.94 2832.13 2550.73 2724.42 2550.73Z" stroke="#184489" stroke-width="6.17095" stroke-linejoin="round" stroke-miterlimit="10" fill="#98B8E3" transform="matrix(1 0 0 1.00031 -349.055 -701.229)"/><path d="M2615.36 2434.94 2724.42 2434.94 2724.42 2550.73 2615.36 2550.73Z" stroke="#184489" stroke-width="6.17095" stroke-linejoin="round" stroke-miterlimit="10" fill="#F0F4FB" transform="matrix(1 0 0 1.00031 -349.055 -701.229)"/><path d="M2832.13 2550.73 2941.19 2550.73 2941.19 2666.52 2832.13 2666.52Z" stroke="#184489" stroke-width="6.17095" stroke-linejoin="round" stroke-miterlimit="10" fill="#3776C9" transform="matrix(1 0 0 1.00031 -349.055 -701.229)"/><path d="M2724.42 2550.73 2832.13 2550.73 2832.13 2666.52 2724.42 2666.52Z" stroke="#184489" stroke-width="6.17095" stroke-linejoin="round" stroke-miterlimit="10" fill="#FFFFFF" transform="matrix(1 0 0 1.00031 -349.055 -701.229)"/><path d="M2615.36 2550.73 2724.42 2550.73 2724.42 2666.52 2615.36 2666.52Z" stroke="#184489" stroke-width="6.17095" stroke-linejoin="round" stroke-miterlimit="10" fill="#CDDDF1" transform="matrix(1 0 0 1.00031 -349.055 -701.229)"/><path d="M3048.9 2203.37 3157.96 2203.37 3157.96 2319.16 3048.9 2319.16Z" stroke="#184489" stroke-width="6.17095" stroke-linejoin="round" stroke-miterlimit="10" fill="#3776C9" transform="matrix(1 0 0 1.00031 -349.055 -701.229)"/><path d="M2941.19 2203.37 3048.9 2203.37 3048.9 2319.16 2941.19 2319.16Z" stroke="#184489" stroke-width="6.17095" stroke-linejoin="round" stroke-miterlimit="10" fill="#98B8E3" transform="matrix(1 0 0 1.00031 -349.055 -701.229)"/><path d="M3048.9 2319.16 3157.96 2319.16 3157.96 2434.94 3048.9 2434.94Z" stroke="#184489" stroke-width="6.17095" stroke-linejoin="round" stroke-miterlimit="10" fill="#CDDDF1" transform="matrix(1 0 0 1.00031 -349.055 -701.229)"/><path d="M2941.19 2319.16 3048.9 2319.16 3048.9 2434.94 2941.19 2434.94Z" stroke="#184489" stroke-width="6.17095" stroke-linejoin="round" stroke-miterlimit="10" fill="#3776C9" transform="matrix(1 0 0 1.00031 -349.055 -701.229)"/><path d="M3048.9 2434.94 3157.96 2434.94 3157.96 2550.73 3048.9 2550.73Z" stroke="#184489" stroke-width="6.17095" stroke-linejoin="round" stroke-miterlimit="10" fill="#98B8E3" transform="matrix(1 0 0 1.00031 -349.055 -701.229)"/><path d="M2941.19 2434.94 3048.9 2434.94 3048.9 2550.73 2941.19 2550.73Z" stroke="#184489" stroke-width="6.17095" stroke-linejoin="round" stroke-miterlimit="10" fill="#F0F4FB" transform="matrix(1 0 0 1.00031 -349.055 -701.229)"/><path d="M3048.9 2550.73 3157.96 2550.73 3157.96 2666.52 3048.9 2666.52Z" stroke="#184489" stroke-width="6.17095" stroke-linejoin="round" stroke-miterlimit="10" fill="#FFFFFF" transform="matrix(1 0 0 1.00031 -349.055 -701.229)"/><path d="M2941.19 2550.73 3048.9 2550.73 3048.9 2666.52 2941.19 2666.52Z" stroke="#184489" stroke-width="6.17095" stroke-linejoin="round" stroke-miterlimit="10" fill="#CDDDF1" transform="matrix(1 0 0 1.00031 -349.055 -701.229)"/><path d="M2649.02 2584.39 2758.08 2584.39 2758.08 2700.18 2649.02 2700.18Z" stroke="#184489" stroke-width="6.17095" stroke-linejoin="round" stroke-miterlimit="10" fill="#F0F4FB" transform="matrix(1 0 0 1.00031 -349.055 -701.229)"/><path d="M2758.08 2584.39 2865.79 2584.39 2865.79 2700.18 2758.08 2700.18Z" stroke="#184489" stroke-width="6.17095" stroke-linejoin="round" stroke-miterlimit="10" fill="#3776C9" transform="matrix(1 0 0 1.00031 -349.055 -701.229)"/><path d="M2865.79 2584.39 2974.85 2584.39 2974.85 2700.18 2865.79 2700.18Z" stroke="#184489" stroke-width="6.17095" stroke-linejoin="round" stroke-miterlimit="10" fill="#98B8E3" transform="matrix(1 0 0 1.00031 -349.055 -701.229)"/><path d="M2649.02 2468.6 2758.08 2468.6 2758.08 2584.39 2649.02 2584.39Z" stroke="#184489" stroke-width="6.17095" stroke-linejoin="round" stroke-miterlimit="10" fill="#3776C9" transform="matrix(1 0 0 1.00031 -349.055 -701.229)"/><path d="M2758.08 2468.6 2865.79 2468.6 2865.79 2584.39 2758.08 2584.39Z" stroke="#184489" stroke-width="6.17095" stroke-linejoin="round" stroke-miterlimit="10" fill="#CDDDF1" transform="matrix(1 0 0 1.00031 -349.055 -701.229)"/><path d="M2865.79 2468.6 2974.85 2468.6 2974.85 2584.39 2865.79 2584.39Z" stroke="#184489" stroke-width="6.17095" stroke-linejoin="round" stroke-miterlimit="10" fill="#3776C9" transform="matrix(1 0 0 1.00031 -349.055 -701.229)"/><path d="M2649.02 2352.82 2758.08 2352.82 2758.08 2468.6 2649.02 2468.6Z" stroke="#184489" stroke-width="6.17095" stroke-linejoin="round" stroke-miterlimit="10" fill="#CDDDF1" transform="matrix(1 0 0 1.00031 -349.055 -701.229)"/><path d="M2758.08 2352.82 2865.79 2352.82 2865.79 2468.6 2758.08 2468.6Z" stroke="#184489" stroke-width="6.17095" stroke-linejoin="round" stroke-miterlimit="10" fill="#98B8E3" transform="matrix(1 0 0 1.00031 -349.055 -701.229)"/><path d="M2865.79 2352.82 2974.85 2352.82 2974.85 2468.6 2865.79 2468.6Z" stroke="#184489" stroke-width="6.17095" stroke-linejoin="round" stroke-miterlimit="10" fill="#F0F4FB" transform="matrix(1 0 0 1.00031 -349.055 -701.229)"/><path d="M2649.02 2237.03 2758.08 2237.03 2758.08 2352.82 2649.02 2352.82Z" stroke="#184489" stroke-width="6.17095" stroke-linejoin="round" stroke-miterlimit="10" fill="#3776C9" transform="matrix(1 0 0 1.00031 -349.055 -701.229)"/><path d="M2758.08 2237.03 2865.79 2237.03 2865.79 2352.82 2758.08 2352.82Z" stroke="#184489" stroke-width="6.17095" stroke-linejoin="round" stroke-miterlimit="10" fill="#FFFFFF" transform="matrix(1 0 0 1.00031 -349.055 -701.229)"/><path d="M2865.79 2237.03 2974.85 2237.03 2974.85 2352.82 2865.79 2352.82Z" stroke="#184489" stroke-width="6.17095" stroke-linejoin="round" stroke-miterlimit="10" fill="#CDDDF1" transform="matrix(1 0 0 1.00031 -349.055 -701.229)"/><path d="M2974.85 2584.39 3082.56 2584.39 3082.56 2700.18 2974.85 2700.18Z" stroke="#184489" stroke-width="6.17095" stroke-linejoin="round" stroke-miterlimit="10" fill="#3776C9" transform="matrix(1 0 0 1.00031 -349.055 -701.229)"/><path d="M3082.56 2584.39 3190.27 2584.39 3190.27 2700.18 3082.56 2700.18Z" stroke="#184489" stroke-width="6.17095" stroke-linejoin="round" stroke-miterlimit="10" fill="#98B8E3" transform="matrix(1 0 0 1.00031 -349.055 -701.229)"/><path d="M2974.85 2468.6 3082.56 2468.6 3082.56 2584.39 2974.85 2584.39Z" stroke="#184489" stroke-width="6.17095" stroke-linejoin="round" stroke-miterlimit="10" fill="#CDDDF1" transform="matrix(1 0 0 1.00031 -349.055 -701.229)"/><path d="M3082.56 2468.6 3190.27 2468.6 3190.27 2584.39 3082.56 2584.39Z" stroke="#184489" stroke-width="6.17095" stroke-linejoin="round" stroke-miterlimit="10" fill="#3776C9" transform="matrix(1 0 0 1.00031 -349.055 -701.229)"/><path d="M2974.85 2237.03 3082.56 2237.03 3082.56 2352.82 2974.85 2352.82Z" stroke="#184489" stroke-width="6.17095" stroke-linejoin="round" stroke-miterlimit="10" fill="#FFFFFF" transform="matrix(1 0 0 1.00031 -349.055 -701.229)"/><path d="M3082.56 2237.03 3190.27 2237.03 3190.27 2352.82 3082.56 2352.82Z" stroke="#184489" stroke-width="6.17095" stroke-linejoin="round" stroke-miterlimit="10" fill="#CDDDF1" transform="matrix(1 0 0 1.00031 -349.055 -701.229)"/><path d="M2974.85 2352.82 3082.56 2352.82 3082.56 2467.26 2974.85 2467.26Z" stroke="#184489" stroke-width="6.17095" stroke-linejoin="round" stroke-miterlimit="10" fill="#CDDDF1" transform="matrix(1 0 0 1.00031 -349.055 -701.229)"/><path d="M3082.56 2352.82 3190.27 2352.82 3190.27 2467.26 3082.56 2467.26Z" stroke="#184489" stroke-width="6.17095" stroke-linejoin="round" stroke-miterlimit="10" fill="#98B8E3" transform="matrix(1 0 0 1.00031 -349.055 -701.229)"/><path d="M3432.62 2484.76 3541.68 2484.76 3541.68 2600.55 3432.62 2600.55Z" stroke="#9A3232" stroke-width="6.17095" stroke-linejoin="round" stroke-miterlimit="10" fill="#F8EBEB" transform="matrix(1 0 0 1.00031 -349.055 -701.229)"/><path d="M3541.68 2484.76 3649.39 2484.76 3649.39 2600.55 3541.68 2600.55Z" stroke="#9A3232" stroke-width="6.17095" stroke-linejoin="round" stroke-miterlimit="10" fill="#F1D8D7" transform="matrix(1 0 0 1.00031 -349.055 -701.229)"/><path d="M3649.39 2484.76 3758.45 2484.76 3758.45 2600.55 3649.39 2600.55Z" stroke="#9A3232" stroke-width="6.17095" stroke-linejoin="round" stroke-miterlimit="10" fill="#DF9E9B" transform="matrix(1 0 0 1.00031 -349.055 -701.229)"/><path d="M3432.62 2368.97 3541.68 2368.97 3541.68 2484.76 3432.62 2484.76Z" stroke="#9A3232" stroke-width="6.17095" stroke-linejoin="round" stroke-miterlimit="10" fill="#DF9E9B" transform="matrix(1 0 0 1.00031 -349.055 -701.229)"/><path d="M3541.68 2368.97 3649.39 2368.97 3649.39 2484.76 3541.68 2484.76Z" stroke="#9A3232" stroke-width="6.17095" stroke-linejoin="round" stroke-miterlimit="10" fill="#F1D8D7" transform="matrix(1 0 0 1.00031 -349.055 -701.229)"/><path d="M3649.39 2368.97 3758.45 2368.97 3758.45 2484.76 3649.39 2484.76Z" stroke="#9A3232" stroke-width="6.17095" stroke-linejoin="round" stroke-miterlimit="10" fill="#CA6261" transform="matrix(1 0 0 1.00031 -349.055 -701.229)"/><path d="M3432.62 2253.18 3541.68 2253.18 3541.68 2368.97 3432.62 2368.97Z" stroke="#9A3232" stroke-width="6.17095" stroke-linejoin="round" stroke-miterlimit="10" fill="#F1D8D7" transform="matrix(1 0 0 1.00031 -349.055 -701.229)"/><path d="M3541.68 2253.18 3649.39 2253.18 3649.39 2368.97 3541.68 2368.97Z" stroke="#9A3232" stroke-width="6.17095" stroke-linejoin="round" stroke-miterlimit="10" fill="#CB6261" transform="matrix(1 0 0 1.00031 -349.055 -701.229)"/><path d="M3649.39 2253.18 3758.45 2253.18 3758.45 2368.97 3649.39 2368.97Z" stroke="#9A3232" stroke-width="6.17095" stroke-linejoin="round" stroke-miterlimit="10" fill="#DF9E9B" transform="matrix(1 0 0 1.00031 -349.055 -701.229)"/><path d="M3432.62 2137.39 3541.68 2137.39 3541.68 2253.18 3432.62 2253.18Z" stroke="#9A3232" stroke-width="6.17095" stroke-linejoin="round" stroke-miterlimit="10" fill="#F8EBEB" transform="matrix(1 0 0 1.00031 -349.055 -701.229)"/><path d="M3541.68 2137.39 3649.39 2137.39 3649.39 2253.18 3541.68 2253.18Z" stroke="#9A3232" stroke-width="6.17095" stroke-linejoin="round" stroke-miterlimit="10" fill="#DF9E9B" transform="matrix(1 0 0 1.00031 -349.055 -701.229)"/><path d="M3649.39 2137.39 3758.45 2137.39 3758.45 2253.18 3649.39 2253.18Z" stroke="#9A3232" stroke-width="6.17095" stroke-linejoin="round" stroke-miterlimit="10" fill="#CB6261" transform="matrix(1 0 0 1.00031 -349.055 -701.229)"/><path d="M3758.45 2484.76 3866.16 2484.76 3866.16 2600.55 3758.45 2600.55Z" stroke="#9A3232" stroke-width="6.17095" stroke-linejoin="round" stroke-miterlimit="10" fill="#F8EBEB" transform="matrix(1 0 0 1.00031 -349.055 -701.229)"/><path d="M3866.16 2484.76 3973.87 2484.76 3973.87 2600.55 3866.16 2600.55Z" stroke="#9A3232" stroke-width="6.17095" stroke-linejoin="round" stroke-miterlimit="10" fill="#FFB7B7" transform="matrix(1 0 0 1.00031 -349.055 -701.229)"/><path d="M3758.45 2368.97 3866.16 2368.97 3866.16 2484.76 3758.45 2484.76Z" stroke="#9A3232" stroke-width="6.17095" stroke-linejoin="round" stroke-miterlimit="10" fill="#DF9E9B" transform="matrix(1 0 0 1.00031 -349.055 -701.229)"/><path d="M3866.16 2368.97 3973.87 2368.97 3973.87 2484.76 3866.16 2484.76Z" stroke="#9A3232" stroke-width="6.17095" stroke-linejoin="round" stroke-miterlimit="10" fill="#CA6261" transform="matrix(1 0 0 1.00031 -349.055 -701.229)"/><path d="M3758.45 2137.39 3866.16 2137.39 3866.16 2253.18 3758.45 2253.18Z" stroke="#9A3232" stroke-width="6.17095" stroke-linejoin="round" stroke-miterlimit="10" fill="#F1D8D7" transform="matrix(1 0 0 1.00031 -349.055 -701.229)"/><path d="M3866.16 2137.39 3973.87 2137.39 3973.87 2253.18 3866.16 2253.18Z" stroke="#9A3232" stroke-width="6.17095" stroke-linejoin="round" stroke-miterlimit="10" fill="#CA6261" transform="matrix(1 0 0 1.00031 -349.055 -701.229)"/><path d="M3758.45 2253.18 3866.16 2253.18 3866.16 2368.97 3758.45 2368.97Z" stroke="#9A3232" stroke-width="6.17095" stroke-linejoin="round" stroke-miterlimit="10" fill="#F8EBEB" transform="matrix(1 0 0 1.00031 -349.055 -701.229)"/><path d="M3866.16 2253.18 3973.87 2253.18 3973.87 2368.97 3866.16 2368.97Z" stroke="#9A3232" stroke-width="6.17095" stroke-linejoin="round" stroke-miterlimit="10" fill="#DF9E9B" transform="matrix(1 0 0 1.00031 -349.055 -701.229)"/><path d="M0 0 107.711 0 107.711 115.789-1.10117e-06 115.789Z" stroke="#9A3232" stroke-width="6.17095" stroke-linejoin="round" stroke-miterlimit="10" fill="#F8EBEB" transform="matrix(-1 0 0 1.00031 3224.94 1469.15)"/><path d="M0 0 109.058 0 109.058 115.789-1.10117e-06 115.789Z" stroke="#9A3232" stroke-width="6.17095" stroke-linejoin="round" stroke-miterlimit="10" fill="#F1D8D7" transform="matrix(-1 0 0 1.00031 3333.99 1469.15)"/><path d="M0 0 107.711 0 107.711 115.789-1.10117e-06 115.789Z" stroke="#9A3232" stroke-width="6.17095" stroke-linejoin="round" stroke-miterlimit="10" fill="#DF9E9B" transform="matrix(-1 0 0 1.00031 3441.7 1469.15)"/><path d="M0 0 107.711 0 107.711 115.789-1.10117e-06 115.789Z" stroke="#9A3232" stroke-width="6.17095" stroke-linejoin="round" stroke-miterlimit="10" fill="#DF9E9B" transform="matrix(-1 0 0 1.00031 3224.94 1584.98)"/><path d="M0 0 109.058 0 109.058 115.789-1.10117e-06 115.789Z" stroke="#9A3232" stroke-width="6.17095" stroke-linejoin="round" stroke-miterlimit="10" fill="#F1D8D7" transform="matrix(-1 0 0 1.00031 3333.99 1584.98)"/><path d="M0 0 107.711 0 107.711 115.789-1.10117e-06 115.789Z" stroke="#9A3232" stroke-width="6.17095" stroke-linejoin="round" stroke-miterlimit="10" fill="#CA6261" transform="matrix(-1 0 0 1.00031 3441.7 1584.98)"/><path d="M0 0 107.711 0 107.711 115.79-1.10117e-06 115.79Z" stroke="#9A3232" stroke-width="6.17095" stroke-linejoin="round" stroke-miterlimit="10" fill="#F1D8D7" transform="matrix(-1 0 0 1.00031 3224.94 1700.8)"/><path d="M0 0 109.058 0 109.058 115.79-1.10117e-06 115.79Z" stroke="#9A3232" stroke-width="6.17095" stroke-linejoin="round" stroke-miterlimit="10" fill="#CB6261" transform="matrix(-1 0 0 1.00031 3333.99 1700.8)"/><path d="M0 0 107.711 0 107.711 115.79-1.10117e-06 115.79Z" stroke="#9A3232" stroke-width="6.17095" stroke-linejoin="round" stroke-miterlimit="10" fill="#DF9E9B" transform="matrix(-1 0 0 1.00031 3441.7 1700.8)"/><path d="M0 0 107.711 0 107.711 114.443-1.10117e-06 114.443Z" stroke="#9A3232" stroke-width="6.17095" stroke-linejoin="round" stroke-miterlimit="10" fill="#F8EBEB" transform="matrix(-1 0 0 1.00031 3224.94 1817.97)"/><path d="M0 0 109.058 0 109.058 114.443-1.10117e-06 114.443Z" stroke="#9A3232" stroke-width="6.17095" stroke-linejoin="round" stroke-miterlimit="10" fill="#DF9E9B" transform="matrix(-1 0 0 1.00031 3333.99 1817.97)"/><path d="M0 0 107.711 0 107.711 114.443-1.10117e-06 114.443Z" stroke="#9A3232" stroke-width="6.17095" stroke-linejoin="round" stroke-miterlimit="10" fill="#CB6261" transform="matrix(-1 0 0 1.00031 3441.7 1817.97)"/><path d="M0 0 109.057 0 109.057 115.789 2.20235e-06 115.789Z" stroke="#9A3232" stroke-width="6.17095" stroke-linejoin="round" stroke-miterlimit="10" fill="#F8EBEB" transform="matrix(-1 0 0 1.00031 3550.76 1469.15)"/><path d="M0 0 107.711 0 107.711 115.789-1.10117e-06 115.789Z" stroke="#9A3232" stroke-width="6.17095" stroke-linejoin="round" stroke-miterlimit="10" fill="#FFB7B7" transform="matrix(-1 0 0 1.00031 3658.47 1469.15)"/><path d="M0 0 109.057 0 109.057 115.789 2.20235e-06 115.789Z" stroke="#9A3232" stroke-width="6.17095" stroke-linejoin="round" stroke-miterlimit="10" fill="#DF9E9B" transform="matrix(-1 0 0 1.00031 3550.76 1584.98)"/><path d="M0 0 107.711 0 107.711 115.789-1.10117e-06 115.789Z" stroke="#9A3232" stroke-width="6.17095" stroke-linejoin="round" stroke-miterlimit="10" fill="#CA6261" transform="matrix(-1 0 0 1.00031 3658.47 1584.98)"/><path d="M0 0 109.057 0 109.057 114.443 2.20235e-06 114.443Z" stroke="#9A3232" stroke-width="6.17095" stroke-linejoin="round" stroke-miterlimit="10" fill="#F1D8D7" transform="matrix(-1 0 0 1.00031 3550.76 1817.97)"/><path d="M0 0 107.711 0 107.711 114.443-1.10117e-06 114.443Z" stroke="#9A3232" stroke-width="6.17095" stroke-linejoin="round" stroke-miterlimit="10" fill="#CA6261" transform="matrix(-1 0 0 1.00031 3658.47 1817.97)"/><path d="M0 0 109.057 0 109.057 115.789 2.20235e-06 115.789Z" stroke="#9A3232" stroke-width="6.17095" stroke-linejoin="round" stroke-miterlimit="10" fill="#F8EBEB" transform="matrix(-1 0 0 1.00031 3550.76 1702.15)"/><path d="M0 0 107.711 0 107.711 115.789-1.10117e-06 115.789Z" stroke="#9A3232" stroke-width="6.17095" stroke-linejoin="round" stroke-miterlimit="10" fill="#DF9E9B" transform="matrix(-1 0 0 1.00031 3658.47 1702.15)"/><path d="M3933.48 2203.37 4041.19 2203.37 4041.19 2319.16 3933.48 2319.16Z" stroke="#9A3232" stroke-width="6.17095" stroke-linejoin="round" stroke-miterlimit="10" fill="#F8EBEB" transform="matrix(1 0 0 1.00031 -349.055 -701.229)"/><path d="M3824.42 2203.37 3933.48 2203.37 3933.48 2319.16 3824.42 2319.16Z" stroke="#9A3232" stroke-width="6.17095" stroke-linejoin="round" stroke-miterlimit="10" fill="#F1D8D7" transform="matrix(1 0 0 1.00031 -349.055 -701.229)"/><path d="M3716.71 2203.37 3824.42 2203.37 3824.42 2319.16 3716.71 2319.16Z" stroke="#9A3232" stroke-width="6.17095" stroke-linejoin="round" stroke-miterlimit="10" fill="#DF9E9B" transform="matrix(1 0 0 1.00031 -349.055 -701.229)"/><path d="M3933.48 2319.16 4041.19 2319.16 4041.19 2434.94 3933.48 2434.94Z" stroke="#9A3232" stroke-width="6.17095" stroke-linejoin="round" stroke-miterlimit="10" fill="#DF9E9B" transform="matrix(1 0 0 1.00031 -349.055 -701.229)"/><path d="M3824.42 2319.16 3933.48 2319.16 3933.48 2434.94 3824.42 2434.94Z" stroke="#9A3232" stroke-width="6.17095" stroke-linejoin="round" stroke-miterlimit="10" fill="#F1D8D7" transform="matrix(1 0 0 1.00031 -349.055 -701.229)"/><path d="M3716.71 2319.16 3824.42 2319.16 3824.42 2434.94 3716.71 2434.94Z" stroke="#9A3232" stroke-width="6.17095" stroke-linejoin="round" stroke-miterlimit="10" fill="#CA6261" transform="matrix(1 0 0 1.00031 -349.055 -701.229)"/><path d="M3933.48 2434.94 4041.19 2434.94 4041.19 2550.73 3933.48 2550.73Z" stroke="#9A3232" stroke-width="6.17095" stroke-linejoin="round" stroke-miterlimit="10" fill="#F1D8D7" transform="matrix(1 0 0 1.00031 -349.055 -701.229)"/><path d="M3824.42 2434.94 3933.48 2434.94 3933.48 2550.73 3824.42 2550.73Z" stroke="#9A3232" stroke-width="6.17095" stroke-linejoin="round" stroke-miterlimit="10" fill="#CB6261" transform="matrix(1 0 0 1.00031 -349.055 -701.229)"/><path d="M3716.71 2434.94 3824.42 2434.94 3824.42 2550.73 3716.71 2550.73Z" stroke="#9A3232" stroke-width="6.17095" stroke-linejoin="round" stroke-miterlimit="10" fill="#DF9E9B" transform="matrix(1 0 0 1.00031 -349.055 -701.229)"/><path d="M3933.48 2550.73 4041.19 2550.73 4041.19 2666.52 3933.48 2666.52Z" stroke="#9A3232" stroke-width="6.17095" stroke-linejoin="round" stroke-miterlimit="10" fill="#F8EBEB" transform="matrix(1 0 0 1.00031 -349.055 -701.229)"/><path d="M3824.42 2550.73 3933.48 2550.73 3933.48 2666.52 3824.42 2666.52Z" stroke="#9A3232" stroke-width="6.17095" stroke-linejoin="round" stroke-miterlimit="10" fill="#DF9E9B" transform="matrix(1 0 0 1.00031 -349.055 -701.229)"/><path d="M3716.71 2550.73 3824.42 2550.73 3824.42 2666.52 3716.71 2666.52Z" stroke="#9A3232" stroke-width="6.17095" stroke-linejoin="round" stroke-miterlimit="10" fill="#CB6261" transform="matrix(1 0 0 1.00031 -349.055 -701.229)"/><path d="M3607.65 2203.37 3716.71 2203.37 3716.71 2319.16 3607.65 2319.16Z" stroke="#9A3232" stroke-width="6.17095" stroke-linejoin="round" stroke-miterlimit="10" fill="#F8EBEB" transform="matrix(1 0 0 1.00031 -349.055 -701.229)"/><path d="M3499.94 2203.37 3607.65 2203.37 3607.65 2319.16 3499.94 2319.16Z" stroke="#9A3232" stroke-width="6.17095" stroke-linejoin="round" stroke-miterlimit="10" fill="#FFB7B7" transform="matrix(1 0 0 1.00031 -349.055 -701.229)"/><path d="M3607.65 2319.16 3716.71 2319.16 3716.71 2434.94 3607.65 2434.94Z" stroke="#9A3232" stroke-width="6.17095" stroke-linejoin="round" stroke-miterlimit="10" fill="#DF9E9B" transform="matrix(1 0 0 1.00031 -349.055 -701.229)"/><path d="M3499.94 2319.16 3607.65 2319.16 3607.65 2434.94 3499.94 2434.94Z" stroke="#9A3232" stroke-width="6.17095" stroke-linejoin="round" stroke-miterlimit="10" fill="#CA6261" transform="matrix(1 0 0 1.00031 -349.055 -701.229)"/><path d="M3607.65 2550.73 3716.71 2550.73 3716.71 2666.52 3607.65 2666.52Z" stroke="#9A3232" stroke-width="6.17095" stroke-linejoin="round" stroke-miterlimit="10" fill="#F1D8D7" transform="matrix(1 0 0 1.00031 -349.055 -701.229)"/><path d="M3499.94 2550.73 3607.65 2550.73 3607.65 2666.52 3499.94 2666.52Z" stroke="#9A3232" stroke-width="6.17095" stroke-linejoin="round" stroke-miterlimit="10" fill="#CA6261" transform="matrix(1 0 0 1.00031 -349.055 -701.229)"/><path d="M3607.65 2434.94 3716.71 2434.94 3716.71 2550.73 3607.65 2550.73Z" stroke="#9A3232" stroke-width="6.17095" stroke-linejoin="round" stroke-miterlimit="10" fill="#F8EBEB" transform="matrix(1 0 0 1.00031 -349.055 -701.229)"/><path d="M3499.94 2434.94 3607.65 2434.94 3607.65 2550.73 3499.94 2550.73Z" stroke="#9A3232" stroke-width="6.17095" stroke-linejoin="round" stroke-miterlimit="10" fill="#DF9E9B" transform="matrix(1 0 0 1.00031 -349.055 -701.229)"/><path d="M0 0 107.711 0 107.711 115.789-1.10117e-06 115.789Z" stroke="#9A3232" stroke-width="6.17095" stroke-linejoin="round" stroke-miterlimit="10" fill="#F8EBEB" transform="matrix(1 0 0 -1.00031 3623.47 1997.1)"/><path d="M0 0 109.057 0 109.057 115.789 2.20235e-06 115.789Z" stroke="#9A3232" stroke-width="6.17095" stroke-linejoin="round" stroke-miterlimit="10" fill="#F1D8D7" transform="matrix(1 0 0 -1.00031 3514.41 1997.1)"/><path d="M0 0 107.711 0 107.711 115.789-1.10117e-06 115.789Z" stroke="#9A3232" stroke-width="6.17095" stroke-linejoin="round" stroke-miterlimit="10" fill="#DF9E9B" transform="matrix(1 0 0 -1.00031 3406.7 1997.1)"/><path d="M0 0 107.711 0 107.711 115.789-1.10117e-06 115.789Z" stroke="#9A3232" stroke-width="6.17095" stroke-linejoin="round" stroke-miterlimit="10" fill="#DF9E9B" transform="matrix(1 0 0 -1.00031 3623.47 1881.27)"/><path d="M0 0 109.057 0 109.057 115.789 2.20235e-06 115.789Z" stroke="#9A3232" stroke-width="6.17095" stroke-linejoin="round" stroke-miterlimit="10" fill="#F1D8D7" transform="matrix(1 0 0 -1.00031 3514.41 1881.27)"/><path d="M0 0 107.711 0 107.711 115.789-1.10117e-06 115.789Z" stroke="#9A3232" stroke-width="6.17095" stroke-linejoin="round" stroke-miterlimit="10" fill="#CA6261" transform="matrix(1 0 0 -1.00031 3406.7 1881.27)"/><path d="M0 0 107.711 0 107.711 115.789-1.10117e-06 115.789Z" stroke="#9A3232" stroke-width="6.17095" stroke-linejoin="round" stroke-miterlimit="10" fill="#F1D8D7" transform="matrix(1 0 0 -1.00031 3623.47 1765.45)"/><path d="M0 0 109.057 0 109.057 115.789 2.20235e-06 115.789Z" stroke="#9A3232" stroke-width="6.17095" stroke-linejoin="round" stroke-miterlimit="10" fill="#CB6261" transform="matrix(1 0 0 -1.00031 3514.41 1765.45)"/><path d="M0 0 107.711 0 107.711 115.789-1.10117e-06 115.789Z" stroke="#9A3232" stroke-width="6.17095" stroke-linejoin="round" stroke-miterlimit="10" fill="#DF9E9B" transform="matrix(1 0 0 -1.00031 3406.7 1765.45)"/><path d="M0 0 107.711 0 107.711 115.789-1.10117e-06 115.789Z" stroke="#9A3232" stroke-width="6.17095" stroke-linejoin="round" stroke-miterlimit="10" fill="#F8EBEB" transform="matrix(1 0 0 -1.00031 3623.47 1649.62)"/><path d="M0 0 109.057 0 109.057 115.789 2.20235e-06 115.789Z" stroke="#9A3232" stroke-width="6.17095" stroke-linejoin="round" stroke-miterlimit="10" fill="#DF9E9B" transform="matrix(1 0 0 -1.00031 3514.41 1649.62)"/><path d="M0 0 107.711 0 107.711 115.789-1.10117e-06 115.789Z" stroke="#9A3232" stroke-width="6.17095" stroke-linejoin="round" stroke-miterlimit="10" fill="#CB6261" transform="matrix(1 0 0 -1.00031 3406.7 1649.62)"/><path d="M0 0 109.058 0 109.058 115.789-1.10117e-06 115.789Z" stroke="#9A3232" stroke-width="6.17095" stroke-linejoin="round" stroke-miterlimit="10" fill="#F8EBEB" transform="matrix(1 0 0 -1.00031 3297.64 1997.1)"/><path d="M0 0 107.711 0 107.711 115.789 3.30352e-06 115.789Z" stroke="#9A3232" stroke-width="6.17095" stroke-linejoin="round" stroke-miterlimit="10" fill="#FFB7B7" transform="matrix(1 0 0 -1.00031 3189.93 1997.1)"/><path d="M0 0 109.058 0 109.058 115.789-1.10117e-06 115.789Z" stroke="#9A3232" stroke-width="6.17095" stroke-linejoin="round" stroke-miterlimit="10" fill="#DF9E9B" transform="matrix(1 0 0 -1.00031 3297.64 1881.27)"/><path d="M0 0 107.711 0 107.711 115.789 3.30352e-06 115.789Z" stroke="#9A3232" stroke-width="6.17095" stroke-linejoin="round" stroke-miterlimit="10" fill="#CA6261" transform="matrix(1 0 0 -1.00031 3189.93 1881.27)"/><path d="M0 0 109.058 0 109.058 115.789-1.10117e-06 115.789Z" stroke="#9A3232" stroke-width="6.17095" stroke-linejoin="round" stroke-miterlimit="10" fill="#F1D8D7" transform="matrix(1 0 0 -1.00031 3297.64 1649.62)"/><path d="M0 0 107.711 0 107.711 115.789 3.30352e-06 115.789Z" stroke="#9A3232" stroke-width="6.17095" stroke-linejoin="round" stroke-miterlimit="10" fill="#CA6261" transform="matrix(1 0 0 -1.00031 3189.93 1649.62)"/><path d="M0 0 109.058 0 109.058 115.789-1.10117e-06 115.789Z" stroke="#9A3232" stroke-width="6.17095" stroke-linejoin="round" stroke-miterlimit="10" fill="#F8EBEB" transform="matrix(1 0 0 -1.00031 3297.64 1765.45)"/><path d="M0 0 107.711 0 107.711 115.789 3.30352e-06 115.789Z" stroke="#9A3232" stroke-width="6.17095" stroke-linejoin="round" stroke-miterlimit="10" fill="#DF9E9B" transform="matrix(1 0 0 -1.00031 3189.93 1765.45)"/><path d="M0 0 107.711 0 107.711 115.789-1.10117e-06 115.789Z" stroke="#9A3232" stroke-width="6.17095" stroke-linejoin="round" stroke-miterlimit="10" fill="#F8EBEB" transform="matrix(1 0 0 -1.00031 1136.69 1917.64)"/><path d="M0 0 109.057 0 109.057 115.789 2.20235e-06 115.789Z" stroke="#9A3232" stroke-width="6.17095" stroke-linejoin="round" stroke-miterlimit="10" fill="#F1D8D7" transform="matrix(1 0 0 -1.00031 1027.63 1917.64)"/><path d="M0 0 107.711 0 107.711 115.789-1.10117e-06 115.789Z" stroke="#9A3232" stroke-width="6.17095" stroke-linejoin="round" stroke-miterlimit="10" fill="#DF9E9B" transform="matrix(1 0 0 -1.00031 919.917 1917.64)"/><path d="M0 0 107.711 0 107.711 115.79-1.10117e-06 115.79Z" stroke="#9A3232" stroke-width="6.17095" stroke-linejoin="round" stroke-miterlimit="10" fill="#DF9E9B" transform="matrix(1 0 0 -1.00031 1136.69 1801.81)"/><path d="M0 0 109.057 0 109.057 115.79 2.20235e-06 115.79Z" stroke="#9A3232" stroke-width="6.17095" stroke-linejoin="round" stroke-miterlimit="10" fill="#F1D8D7" transform="matrix(1 0 0 -1.00031 1027.63 1801.81)"/><path d="M0 0 107.711 0 107.711 115.79-1.10117e-06 115.79Z" stroke="#9A3232" stroke-width="6.17095" stroke-linejoin="round" stroke-miterlimit="10" fill="#CA6261" transform="matrix(1 0 0 -1.00031 919.917 1801.81)"/><path d="M0 0 107.711 0 107.711 115.789-1.10117e-06 115.789Z" stroke="#9A3232" stroke-width="6.17095" stroke-linejoin="round" stroke-miterlimit="10" fill="#F1D8D7" transform="matrix(1 0 0 -1.00031 1136.69 1685.99)"/><path d="M0 0 109.057 0 109.057 115.789 2.20235e-06 115.789Z" stroke="#9A3232" stroke-width="6.17095" stroke-linejoin="round" stroke-miterlimit="10" fill="#CB6261" transform="matrix(1 0 0 -1.00031 1027.63 1685.99)"/><path d="M0 0 107.711 0 107.711 115.789-1.10117e-06 115.789Z" stroke="#9A3232" stroke-width="6.17095" stroke-linejoin="round" stroke-miterlimit="10" fill="#DF9E9B" transform="matrix(1 0 0 -1.00031 919.917 1685.99)"/><path d="M0 0 107.711 0 107.711 115.789-1.10117e-06 115.789Z" stroke="#9A3232" stroke-width="6.17095" stroke-linejoin="round" stroke-miterlimit="10" fill="#F8EBEB" transform="matrix(1 0 0 -1.00031 1136.69 1570.16)"/><path d="M0 0 109.057 0 109.057 115.789 2.20235e-06 115.789Z" stroke="#9A3232" stroke-width="6.17095" stroke-linejoin="round" stroke-miterlimit="10" fill="#DF9E9B" transform="matrix(1 0 0 -1.00031 1027.63 1570.16)"/><path d="M0 0 107.711 0 107.711 115.789-1.10117e-06 115.789Z" stroke="#9A3232" stroke-width="6.17095" stroke-linejoin="round" stroke-miterlimit="10" fill="#CB6261" transform="matrix(1 0 0 -1.00031 919.917 1570.16)"/><text fill="#4C216D" font-family="Arial,Arial_MSFontService,sans-serif" font-weight="400" font-size="64" transform="matrix(1.34639 0 0 1.34681 2162.2 198)">Ou</text><text fill="#4C216D" font-family="Arial,Arial_MSFontService,sans-serif" font-weight="400" font-size="64" transform="matrix(1.34639 0 0 1.34681 2277.13 198)">t</text><text fill="#4C216D" font-family="Arial,Arial_MSFontService,sans-serif" font-weight="400" font-size="64" transform="matrix(1.34639 0 0 1.34681 2301.04 198)">pu</text><text fill="#4C216D" font-family="Arial,Arial_MSFontService,sans-serif" font-weight="400" font-size="64" transform="matrix(1.34639 0 0 1.34681 2396.7 198)">t</text><path d="M564.432 2174.98 564.432 2588.58C564.432 2589.86 563.397 2590.9 562.117 2590.9 560.84 2590.9 559.804 2589.86 559.804 2588.58L559.803 2174.98C559.803 2173.7 560.84 2172.67 562.117 2172.67 563.395 2172.67 564.432 2173.7 564.432 2174.98ZM543.605 2181.15 562.117 2144.12 580.63 2181.15ZM580.63 2582.41 562.119 2619.44 543.605 2582.41Z" transform="matrix(1 0 0 1.00031 -349.055 -701.229)"/><text font-family="Arial,Arial_MSFontService,sans-serif" font-weight="400" font-size="64" transform="matrix(1.34639 0 0 1.34681 283.699 1358)">Matrix B</text><text font-family="Arial,Arial_MSFontService,sans-serif" font-weight="400" font-size="64" transform="matrix(1.34639 0 0 1.34681 923.145 1358)">Matrix C</text><text font-family="Arial,Arial_MSFontService,sans-serif" font-weight="400" font-size="64" transform="matrix(1.34639 0 0 1.34681 2348.35 1358)">Matrix B</text><text font-family="Arial,Arial_MSFontService,sans-serif" font-weight="400" font-size="64" transform="matrix(1.34639 0 0 1.34681 3226.67 1358)">Matrix C</text><text font-family="Arial,Arial_MSFontService,sans-serif" font-weight="400" font-size="64" transform="matrix(1.34639 0 0 1.34681 1501.29 1358)">Step size </text><text font-family="Arial,Arial_MSFontService,sans-serif" font-weight="400" font-size="64" transform="matrix(1.34639 0 0 1.34681 1875.27 1358)"></text><path d="M30.8547-2.31405 282.68-2.31366C283.958-2.31366 284.993-1.2776 284.993 0.000441671 284.993 1.27849 283.958 2.31455 282.68 2.31455L30.8547 2.31416C29.5767 2.31415 28.5406 1.27809 28.5406 4.4231e-05 28.5406-1.278 29.5767-2.31407 30.8547-2.31405ZM37.0257 18.5129 0 0 37.0257-18.5129ZM276.508-18.5124 313.534 0.000485901 276.508 18.5133Z" transform="matrix(-1 0 0 1.00031 585.837 1978.24)"/><text font-family="Arial,Arial_MSFontService,sans-serif" font-weight="400" font-size="55" transform="matrix(1.34639 0 0 1.34681 392.008 2087)">D</text><text font-family="Arial,Arial_MSFontService,sans-serif" font-weight="400" font-size="55" transform="matrix(1.34639 0 0 1.34681 108.781 1658)">N</text><path d="M30.8547-2.31405 282.68-2.31366C283.958-2.31366 284.993-1.2776 284.993 0.000441671 284.993 1.27849 283.958 2.31455 282.68 2.31455L30.8547 2.31416C29.5767 2.31415 28.5406 1.27809 28.5406 4.4231e-05 28.5406-1.278 29.5767-2.31407 30.8547-2.31405ZM37.0257 18.5129 0 0 37.0257-18.5129ZM276.508-18.5124 313.534 0.000485901 276.508 18.5133Z" transform="matrix(-1 0 0 1.00031 1224.03 1978.24)"/><path d="M1199.93 2180.37 1199.93 2593.97C1199.93 2595.25 1198.89 2596.28 1197.61 2596.28 1196.34 2596.28 1195.3 2595.25 1195.3 2593.97L1195.3 2180.37C1195.3 2179.09 1196.34 2178.05 1197.61 2178.05 1198.89 2178.05 1199.93 2179.09 1199.93 2180.37ZM1179.1 2186.54 1197.61 2149.51 1216.13 2186.54ZM1216.13 2587.8 1197.61 2624.83 1179.1 2587.8Z" transform="matrix(1 0 0 1.00031 -349.055 -701.229)"/><text font-family="Arial,Arial_MSFontService,sans-serif" font-weight="400" font-size="55" transform="matrix(1.34639 0 0 1.34681 748.201 1739)">N</text><text font-family="Arial,Arial_MSFontService,sans-serif" font-weight="400" font-size="55" transform="matrix(1.34639 0 0 1.34681 1035.81 2088)">D</text><path d="M4048.36 2124.05 4090.37 2166.56C4091.27 2167.46 4091.26 2168.93 4090.36 2169.83 4089.44 2170.73 4087.97 2170.72 4087.09 2169.81L4045.08 2127.31C4044.18 2126.39 4044.19 2124.93 4045.09 2124.04 4046.01 2123.13 4047.46 2123.15 4048.36 2124.05ZM4037.89 2143.07 4025.03 2103.73 4064.22 2117.05ZM4097.56 2150.78 4110.42 2190.13 4071.23 2176.8Z" transform="matrix(1 0 0 1.00031 -349.055 -701.229)"/><text font-family="Arial,Arial_MSFontService,sans-serif" font-weight="400" font-size="55" transform="matrix(1.34639 0 0 1.34681 3778.17 1447)">B </text><text font-family="Arial,Arial_MSFontService,sans-serif" font-weight="400" font-size="55" transform="matrix(1.34639 0 0 1.34681 3848.18 1447)">(</text><text font-family="Arial,Arial_MSFontService,sans-serif" font-weight="400" font-size="55" transform="matrix(1.34639 0 0 1.34681 3872.41 1447)">batch size</text><text font-family="Arial,Arial_MSFontService,sans-serif" font-weight="400" font-size="55" transform="matrix(1.34639 0 0 1.34681 4206.32 1447)">)</text><path d="M4129.67 2277.31 4129.67 2690.91C4129.67 2692.19 4128.64 2693.22 4127.36 2693.22 4126.08 2693.22 4125.04 2692.19 4125.04 2690.91L4125.04 2277.31C4125.04 2276.03 4126.08 2274.99 4127.36 2274.99 4128.64 2274.99 4129.67 2276.03 4129.67 2277.31ZM4108.84 2283.48 4127.36 2246.45 4145.87 2283.48ZM4145.87 2684.74 4127.36 2721.77 4108.84 2684.74Z" transform="matrix(1 0 0 1.00031 -349.055 -701.229)"/><path d="M30.8549-2.31408 517.885-2.31365C519.162-2.31365 520.199-1.27758 520.199 0.000460629 520.199 1.27851 519.162 2.31456 517.885 2.31456L30.8549 2.31413C29.5768 2.31413 28.5408 1.27807 28.5408 2.52725e-05 28.5408-1.27802 29.5768-2.31408 30.8549-2.31408ZM37.0257 18.5129 0 0 37.0257-18.5129ZM511.714-18.5124 548.74 0.000485901 511.714 18.5133Z" transform="matrix(-1 0 0 1.00031 3714.43 2041.54)"/><text font-family="Arial,Arial_MSFontService,sans-serif" font-weight="400" font-size="55" transform="matrix(1.34639 0 0 1.34681 3116.42 2147)">N </text><text font-family="Arial,Arial_MSFontService,sans-serif" font-weight="400" font-size="55" transform="matrix(1.34639 0 0 1.34681 3190.47 2147)">(</text><text font-family="Arial,Arial_MSFontService,sans-serif" font-weight="400" font-size="55" transform="matrix(1.34639 0 0 1.34681 3214.7 2147)">hidden state size </text><text font-family="Arial,Arial_MSFontService,sans-serif" font-weight="400" font-size="55" transform="matrix(1.34639 0 0 1.34681 3790.96 2147)">)</text><text font-family="Arial,Arial_MSFontService,sans-serif" font-weight="400" font-size="55" transform="matrix(1.34639 0 0 1.34681 3841.11 1720)">L</text><text font-family="Arial,Arial_MSFontService,sans-serif" font-weight="400" font-size="55" transform="matrix(1.34639 0 0 1.34681 3900.07 1720)">(</text><text font-family="Arial,Arial_MSFontService,sans-serif" font-weight="400" font-size="55" transform="matrix(1.34639 0 0 1.34681 3924.3 1720)">sequence </text><text font-family="Arial,Arial_MSFontService,sans-serif" font-weight="400" font-size="55" transform="matrix(1.34639 0 0 1.34681 3929.97 1809)">length</text><text font-family="Arial,Arial_MSFontService,sans-serif" font-weight="400" font-size="55" transform="matrix(1.34639 0 0 1.34681 4131.93 1809)">)</text><text font-family="Arial,Arial_MSFontService,sans-serif" font-weight="400" font-size="55" transform="matrix(1.34639 0 0 1.34681 1991.16 1145)">D </text><text font-family="Arial,Arial_MSFontService,sans-serif" font-weight="400" font-size="55" transform="matrix(1.34639 0 0 1.34681 2065.21 1145)">(</text><text font-family="Arial,Arial_MSFontService,sans-serif" font-weight="400" font-size="55" transform="matrix(1.34639 0 0 1.34681 2089.44 1145)">size of input vector </text><text font-family="Arial,Arial_MSFontService,sans-serif" font-weight="400" font-size="55" transform="matrix(1.34639 0 0 1.34681 2727.63 1145)">)</text><path d="M3165.13 2124.05 3207.14 2166.56C3208.04 2167.46 3208.03 2168.93 3207.13 2169.83 3206.21 2170.73 3204.74 2170.72 3203.85 2169.81L3161.85 2127.31C3160.94 2126.39 3160.96 2124.93 3161.86 2124.04 3162.78 2123.13 3164.23 2123.15 3165.13 2124.05ZM3154.66 2143.07 3141.8 2103.73 3180.99 2117.05ZM3214.33 2150.78 3227.19 2190.13 3187.99 2176.8Z" transform="matrix(1 0 0 1.00031 -349.055 -701.229)"/><text font-family="Arial,Arial_MSFontService,sans-serif" font-weight="400" font-size="55" transform="matrix(1.34639 0 0 1.34681 2894.98 1448)">B </text><path d="M3238.36 2278.66 3238.36 2692.25C3238.36 2693.53 3237.33 2694.57 3236.05 2694.57 3234.77 2694.57 3233.73 2693.53 3233.73 2692.25L3233.73 2278.66C3233.73 2277.38 3234.77 2276.34 3236.05 2276.34 3237.33 2276.34 3238.36 2277.38 3238.36 2278.66ZM3217.53 2284.82 3236.05 2247.8 3254.56 2284.82ZM3254.56 2686.09 3236.05 2723.11 3217.53 2686.09Z" transform="matrix(1 0 0 1.00031 -349.055 -701.229)"/><path d="M30.8549-2.31408 517.885-2.31365C519.162-2.31365 520.199-1.27758 520.199 0.000460629 520.199 1.27851 519.162 2.31456 517.885 2.31456L30.8549 2.31413C29.5768 2.31413 28.5408 1.27807 28.5408 2.52725e-05 28.5408-1.27802 29.5768-2.31408 30.8549-2.31408ZM37.0257 18.5129 0 0 37.0257-18.5129ZM511.714-18.5124 548.74 0.000485901 511.714 18.5133Z" transform="matrix(-1 0 0 1.00031 2820.43 2041.54)"/><text font-family="Arial,Arial_MSFontService,sans-serif" font-weight="400" font-size="55" transform="matrix(1.34639 0 0 1.34681 2549.22 2147)">N</text><text font-family="Arial,Arial_MSFontService,sans-serif" font-weight="400" font-size="55" transform="matrix(1.34639 0 0 1.34681 2946.31 1720)">L</text><path d="M2294.02 2125.4 2336.03 2167.9C2336.93 2168.8 2336.91 2170.27 2336.01 2171.17 2335.1 2172.08 2333.63 2172.06 2332.74 2171.16L2290.73 2128.65C2289.83 2127.74 2289.84 2126.27 2290.75 2125.38 2291.66 2124.48 2293.12 2124.49 2294.02 2125.4ZM2283.54 2144.42 2270.69 2105.08 2309.88 2118.4ZM2343.22 2152.12 2356.07 2191.48 2316.88 2178.15Z" transform="matrix(1 0 0 1.00031 -349.055 -701.229)"/><text font-family="Arial,Arial_MSFontService,sans-serif" font-weight="400" font-size="55" transform="matrix(1.34639 0 0 1.34681 2023.44 1450)">B </text><path d="M2364.56 2280 2364.56 2693.6C2364.56 2694.88 2363.52 2695.92 2362.24 2695.92 2360.96 2695.92 2359.92 2694.88 2359.92 2693.6L2359.92 2280C2359.92 2278.72 2360.96 2277.69 2362.24 2277.69 2363.52 2277.69 2364.56 2278.72 2364.56 2280ZM2343.73 2286.17 2362.24 2249.14 2380.75 2286.17ZM2380.75 2687.43 2362.24 2724.46 2343.73 2687.43Z" transform="matrix(1 0 0 1.00031 -349.055 -701.229)"/><path d="M30.8547-2.31405 276.422-2.31368C277.699-2.31366 278.735-1.2776 278.735 0.00044077 278.735 1.27849 277.699 2.31455 276.422 2.31454L30.8547 2.31416C29.5767 2.31415 28.5406 1.27809 28.5406 4.51318e-05 28.5406-1.278 29.5767-2.31407 30.8547-2.31405ZM37.0257 18.5129 0 0 37.0257-18.5129ZM270.25-18.5124 307.276 0.000485901 270.25 18.5133Z" transform="matrix(-1 0 0 1.00031 1948.85 2042.89)"/><text font-family="Arial,Arial_MSFontService,sans-serif" font-weight="400" font-size="55" transform="matrix(1.34639 0 0 1.34681 1761.07 2149)">D</text><text font-family="Arial,Arial_MSFontService,sans-serif" font-weight="400" font-size="55" transform="matrix(1.34639 0 0 1.34681 2069.84 1722)">L</text><text font-family="Arial,Arial_MSFontService,sans-serif" font-weight="400" font-size="64" transform="matrix(1.34639 0 0 1.34681 431.899 2314)">Traditional SSM</text><text font-family="Arial,Arial_MSFontService,sans-serif" font-weight="400" font-size="64" transform="matrix(1.34639 0 0 1.34681 2624.89 2314)">SSM with selection</text></g></g></g></g></svg>